<svg xmlns="http://www.w3.org/2000/svg" xmlns:xlink="http://www.w3.org/1999/xlink" contentStyleType="text/css" data-diagram-type="CLASS" height="1316.6667px" preserveAspectRatio="none" style="width:1022px;height:1316px;" version="1.1" viewBox="0 0 1022 1316" width="1022.9167px" zoomAndPan="magnify"><defs/><g><!--class ILoadBalancerPolicy--><g id="elem_ILoadBalancerPolicy"><rect codeLine="27" fill="transparent" height="101.3763" id="ILoadBalancerPolicy" rx="4.1667" ry="4.1667" style="stroke:#55B2DE;stroke-width:1.0417;" width="156.4346" x="267.8646" y="1203.6875"/><rect fill="#227FAB" height="60.3673" rx="4.1667" ry="4.1667" style="stroke:#227FAB;stroke-width:1.0417;" width="156.4346" x="267.8646" y="1203.6875"/><rect fill="#227FAB" height="4.1667" style="stroke:#227FAB;stroke-width:1.0417;" width="156.4346" x="267.8646" y="1259.8882"/><rect codeLine="27" fill="transparent" height="101.3763" id="ILoadBalancerPolicy" rx="4.1667" ry="4.1667" style="stroke:#55B2DE;stroke-width:1.0417;" width="156.4346" x="267.8646" y="1203.6875"/><ellipse cx="282.4479" cy="1233.8712" fill="transparent" rx="10.4167" ry="10.4167" style="stroke:#55B2DE;stroke-width:1.0417;"/><path d="M279.8519,1231.033 L279.8519,1229.4461 L285.2779,1229.4461 L285.2779,1231.033 L283.4652,1231.033 L283.4652,1236.9718 L285.2779,1236.9718 L285.2779,1238.5587 L279.8519,1238.5587 L279.8519,1236.9718 L281.6646,1236.9718 L281.6646,1231.033 Z " fill="#2A9FD6"/><text fill="#ADAFAE" font-family="Verdana" font-size="12.5" font-style="italic" lengthAdjust="spacing" textLength="71.0205" x="323.0716" y="1226.6713">&#171;interface&#187;</text><text fill="#ADAFAE" font-family="Verdana" font-size="11.4583" font-style="italic" lengthAdjust="spacing" textLength="114.768" x="301.1979" y="1251.2324">ILoadBalancerPolicy</text><line style="stroke:#55B2DE;stroke-width:1.0417;" x1="268.9063" x2="423.2575" y1="1264.0548" y2="1264.0548"/><line style="stroke:#55B2DE;stroke-width:1.0417;" x1="268.9063" x2="423.2575" y1="1272.3882" y2="1272.3882"/><ellipse cx="279.3229" cy="1290.2885" fill="transparent" rx="3.125" ry="3.125" style="stroke:#55B2DE;stroke-width:1.0417;"/><text fill="#ADAFAE" font-family="Verdana" font-size="11.4583" lengthAdjust="spacing" textLength="103.0355" x="292.8646" y="1293.283">getServerId(): int</text></g><!--class LoadBalancerApplication--><g id="elem_LoadBalancerApplication"><rect codeLine="30" fill="transparent" height="75.768" id="LoadBalancerApplication" rx="4.1667" ry="4.1667" style="stroke:#55B2DE;stroke-width:1.0417;" width="181.8354" x="580.1667" y="66.3958"/><rect fill="#227FAB" height="34.759" rx="4.1667" ry="4.1667" style="stroke:#227FAB;stroke-width:1.0417;" width="181.8354" x="580.1667" y="66.3958"/><rect fill="#227FAB" height="4.1667" style="stroke:#227FAB;stroke-width:1.0417;" width="181.8354" x="580.1667" y="96.9882"/><rect codeLine="30" fill="transparent" height="75.768" id="LoadBalancerApplication" rx="4.1667" ry="4.1667" style="stroke:#55B2DE;stroke-width:1.0417;" width="181.8354" x="580.1667" y="66.3958"/><ellipse cx="594.75" cy="83.7753" fill="transparent" rx="10.4167" ry="10.4167" style="stroke:#55B2DE;stroke-width:1.0417;"/><path d="M596.6604,88.2004 Q596.2332,88.4201 595.7632,88.53 Q595.2932,88.6398 594.7744,88.6398 Q592.9312,88.6398 591.9607,87.4252 Q590.9902,86.2106 590.9902,83.9157 Q590.9902,81.6147 591.9607,80.4001 Q592.9312,79.1855 594.7744,79.1855 Q595.2932,79.1855 595.7693,79.2954 Q596.2454,79.4052 596.6604,79.6249 L596.6604,81.6269 Q596.1965,81.1997 595.7601,81.0013 Q595.3237,80.8029 594.8599,80.8029 Q593.8711,80.8029 593.3676,81.5872 Q592.864,82.3715 592.864,83.9157 Q592.864,85.4538 593.3676,86.2381 Q593.8711,87.0224 594.8599,87.0224 Q595.3237,87.0224 595.7601,86.824 Q596.1965,86.6257 596.6604,86.1984 Z " fill="#2A9FD6"/><text fill="#ADAFAE" font-family="Verdana" font-size="11.4583" lengthAdjust="spacing" textLength="140.1688" x="613.5" y="88.3324">LoadBalancerApplication</text><line style="stroke:#55B2DE;stroke-width:1.0417;" x1="581.2083" x2="760.9604" y1="101.1548" y2="101.1548"/><line style="stroke:#55B2DE;stroke-width:1.0417;" x1="581.2083" x2="760.9604" y1="109.4882" y2="109.4882"/><ellipse cx="591.625" cy="127.3885" fill="transparent" rx="3.125" ry="3.125" style="stroke:#55B2DE;stroke-width:1.0417;"/><text fill="#ADAFAE" font-family="Verdana" font-size="11.4583" lengthAdjust="spacing" textLength="117.2577" x="605.1667" y="130.3831">main(String[]): void</text></g><!--class LoadBalancerApplicationTests--><g id="elem_LoadBalancerApplicationTests"><rect codeLine="33" fill="transparent" height="75.768" id="LoadBalancerApplicationTests" rx="4.1667" ry="4.1667" style="stroke:#55B2DE;stroke-width:1.0417;" width="212.1765" x="798.3333" y="66.3958"/><rect fill="#227FAB" height="34.759" rx="4.1667" ry="4.1667" style="stroke:#227FAB;stroke-width:1.0417;" width="212.1765" x="798.3333" y="66.3958"/><rect fill="#227FAB" height="4.1667" style="stroke:#227FAB;stroke-width:1.0417;" width="212.1765" x="798.3333" y="96.9882"/><rect codeLine="33" fill="transparent" height="75.768" id="LoadBalancerApplicationTests" rx="4.1667" ry="4.1667" style="stroke:#55B2DE;stroke-width:1.0417;" width="212.1765" x="798.3333" y="66.3958"/><ellipse cx="812.9167" cy="83.7753" fill="transparent" rx="10.4167" ry="10.4167" style="stroke:#55B2DE;stroke-width:1.0417;"/><path d="M814.8271,88.2004 Q814.3998,88.4201 813.9299,88.53 Q813.4599,88.6398 812.9411,88.6398 Q811.0978,88.6398 810.1274,87.4252 Q809.1569,86.2106 809.1569,83.9157 Q809.1569,81.6147 810.1274,80.4001 Q811.0978,79.1855 812.9411,79.1855 Q813.4599,79.1855 813.936,79.2954 Q814.412,79.4052 814.8271,79.6249 L814.8271,81.6269 Q814.3632,81.1997 813.9268,81.0013 Q813.4904,80.8029 813.0265,80.8029 Q812.0378,80.8029 811.5342,81.5872 Q811.0307,82.3715 811.0307,83.9157 Q811.0307,85.4538 811.5342,86.2381 Q812.0378,87.0224 813.0265,87.0224 Q813.4904,87.0224 813.9268,86.824 Q814.3632,86.6257 814.8271,86.1984 Z " fill="#2A9FD6"/><text fill="#ADAFAE" font-family="Verdana" font-size="11.4583" lengthAdjust="spacing" textLength="170.5098" x="831.6667" y="88.3324">LoadBalancerApplicationTests</text><line style="stroke:#55B2DE;stroke-width:1.0417;" x1="799.375" x2="1009.4682" y1="101.1548" y2="101.1548"/><line style="stroke:#55B2DE;stroke-width:1.0417;" x1="799.375" x2="1009.4682" y1="109.4882" y2="109.4882"/><polygon fill="transparent" points="809.7917,123.2219,805.625,129.4719,813.9583,129.4719" style="stroke:#2A9FD6;stroke-width:1.0417;"/><text fill="#ADAFAE" font-family="Verdana" font-size="11.4583" lengthAdjust="spacing" textLength="119.7922" x="823.3333" y="130.3831">contextLoads(): void</text></g><!--class LoadBalancerController--><g id="elem_LoadBalancerController"><rect codeLine="36" fill="transparent" height="173.1374" id="LoadBalancerController" rx="4.1667" ry="4.1667" style="stroke:#55B2DE;stroke-width:1.0417;" width="523.4207" x="19.7917" y="17.7083"/><rect fill="#227FAB" height="34.759" rx="4.1667" ry="4.1667" style="stroke:#227FAB;stroke-width:1.0417;" width="523.4207" x="19.7917" y="17.7083"/><rect fill="#227FAB" height="4.1667" style="stroke:#227FAB;stroke-width:1.0417;" width="523.4207" x="19.7917" y="48.3007"/><rect codeLine="36" fill="transparent" height="173.1374" id="LoadBalancerController" rx="4.1667" ry="4.1667" style="stroke:#55B2DE;stroke-width:1.0417;" width="523.4207" x="19.7917" y="17.7083"/><ellipse cx="205.3157" cy="35.0878" fill="transparent" rx="10.4167" ry="10.4167" style="stroke:#55B2DE;stroke-width:1.0417;"/><path d="M207.2261,39.5129 Q206.7988,39.7326 206.3288,39.8425 Q205.8589,39.9523 205.3401,39.9523 Q203.4968,39.9523 202.5263,38.7377 Q201.5559,37.5231 201.5559,35.2282 Q201.5559,32.9272 202.5263,31.7126 Q203.4968,30.498 205.3401,30.498 Q205.8589,30.498 206.3349,30.6079 Q206.811,30.7177 207.2261,30.9374 L207.2261,32.9394 Q206.7622,32.5122 206.3258,32.3138 Q205.8894,32.1154 205.4255,32.1154 Q204.4367,32.1154 203.9332,32.8997 Q203.4297,33.684 203.4297,35.2282 Q203.4297,36.7663 203.9332,37.5506 Q204.4367,38.3349 205.4255,38.3349 Q205.8894,38.3349 206.3258,38.1365 Q206.7622,37.9382 207.2261,37.5109 Z " fill="#2A9FD6"/><text fill="#ADAFAE" font-family="Verdana" font-size="11.4583" lengthAdjust="spacing" textLength="133.6227" x="230.3157" y="39.6449">LoadBalancerController</text><line style="stroke:#55B2DE;stroke-width:1.0417;" x1="20.8333" x2="542.1707" y1="52.4673" y2="52.4673"/><rect fill="transparent" height="6.25" style="stroke:#55B2DE;stroke-width:1.0417;" width="6.25" x="28.125" y="67.2427"/><text fill="#ADAFAE" font-family="Verdana" font-size="11.4583" lengthAdjust="spacing" textLength="182.5109" x="44.7917" y="73.3622">serverManager: ServerManager</text><rect fill="transparent" height="6.25" style="stroke:#55B2DE;stroke-width:1.0417;" width="6.25" x="28.125" y="91.585"/><text fill="#ADAFAE" font-family="Verdana" font-size="11.4583" lengthAdjust="spacing" textLength="163.7848" x="44.7917" y="97.7046">restTemplate: RestTemplate</text><polygon fill="transparent" points="31.25,114.8857,27.0833,121.1357,35.4167,121.1357" style="stroke:#2A9FD6;stroke-width:1.0417;"/><text fill="#ADAFAE" font-family="Verdana" font-size="11.4583" lengthAdjust="spacing" textLength="190.7801" x="44.7917" y="122.0469">map: HashMap&lt;String, Integer&gt;</text><line style="stroke:#55B2DE;stroke-width:1.0417;" x1="20.8333" x2="542.1707" y1="133.8277" y2="133.8277"/><ellipse cx="31.25" cy="151.7281" fill="transparent" rx="3.125" ry="3.125" style="stroke:#55B2DE;stroke-width:1.0417;"/><text fill="#ADAFAE" font-family="Verdana" font-size="11.4583" lengthAdjust="spacing" textLength="486.9624" x="44.7917" y="154.7226">handleRequest(HttpServletRequest, Map&lt;String, String&gt;): ResponseEntity&lt;String&gt;</text><ellipse cx="31.25" cy="176.0704" fill="transparent" rx="3.125" ry="3.125" style="stroke:#55B2DE;stroke-width:1.0417;"/><text fill="#ADAFAE" font-family="Verdana" font-size="11.4583" lengthAdjust="spacing" textLength="236.1099" x="44.7917" y="179.0649">setServerManager(ServerManager): void</text></g><!--class LoadBalancerPolicyFactory--><g id="elem_LoadBalancerPolicyFactory"><rect codeLine="43" fill="transparent" height="173.1374" id="LoadBalancerPolicyFactory" rx="4.1667" ry="4.1667" style="stroke:#55B2DE;stroke-width:1.0417;" width="343.8024" x="223.1458" y="683.7292"/><rect fill="#227FAB" height="34.759" rx="4.1667" ry="4.1667" style="stroke:#227FAB;stroke-width:1.0417;" width="343.8024" x="223.1458" y="683.7292"/><rect fill="#227FAB" height="4.1667" style="stroke:#227FAB;stroke-width:1.0417;" width="343.8024" x="223.1458" y="714.3215"/><rect codeLine="43" fill="transparent" height="173.1374" id="LoadBalancerPolicyFactory" rx="4.1667" ry="4.1667" style="stroke:#55B2DE;stroke-width:1.0417;" width="343.8024" x="223.1458" y="683.7292"/><ellipse cx="309.4053" cy="701.1087" fill="transparent" rx="10.4167" ry="10.4167" style="stroke:#55B2DE;stroke-width:1.0417;"/><path d="M311.3157,705.5337 Q310.8884,705.7534 310.4185,705.8633 Q309.9485,705.9732 309.4297,705.9732 Q307.5864,705.9732 306.616,704.7586 Q305.6455,703.544 305.6455,701.2491 Q305.6455,698.948 306.616,697.7334 Q307.5864,696.5188 309.4297,696.5188 Q309.9485,696.5188 310.4246,696.6287 Q310.9007,696.7386 311.3157,696.9583 L311.3157,698.9602 Q310.8518,698.533 310.4154,698.3346 Q309.979,698.1363 309.5152,698.1363 Q308.5264,698.1363 308.0228,698.9206 Q307.5193,699.7049 307.5193,701.2491 Q307.5193,702.7871 308.0228,703.5714 Q308.5264,704.3557 309.5152,704.3557 Q309.979,704.3557 310.4154,704.1574 Q310.8518,703.959 311.3157,703.5318 Z " fill="#2A9FD6"/><text fill="#ADAFAE" font-family="Verdana" font-size="11.4583" lengthAdjust="spacing" textLength="152.5335" x="334.4053" y="705.6657">LoadBalancerPolicyFactory</text><line style="stroke:#55B2DE;stroke-width:1.0417;" x1="224.1875" x2="565.9066" y1="718.4882" y2="718.4882"/><rect fill="transparent" height="6.25" style="stroke:#55B2DE;stroke-width:1.0417;" width="6.25" x="231.4792" y="733.2635"/><text fill="#ADAFAE" font-family="Verdana" font-size="11.4583" lengthAdjust="spacing" textLength="144.1915" x="248.1458" y="739.3831">roundRobin: RoundRobin</text><rect fill="transparent" height="6.25" style="stroke:#55B2DE;stroke-width:1.0417;" width="6.25" x="231.4792" y="757.6059"/><text fill="#ADAFAE" font-family="Verdana" font-size="11.4583" lengthAdjust="spacing" textLength="253.6555" x="248.1458" y="763.7254">weightedRoundRobin: WeightedRoundRobin</text><line style="stroke:#55B2DE;stroke-width:1.0417;" x1="224.1875" x2="565.9066" y1="775.5062" y2="775.5062"/><ellipse cx="234.6042" cy="793.4065" fill="transparent" rx="3.125" ry="3.125" style="stroke:#55B2DE;stroke-width:1.0417;"/><text fill="#ADAFAE" font-family="Verdana" font-size="11.4583" lengthAdjust="spacing" textLength="199.0046" x="248.1458" y="796.4011">setRoundRobin(RoundRobin): void</text><ellipse cx="234.6042" cy="817.7489" fill="transparent" rx="3.125" ry="3.125" style="stroke:#55B2DE;stroke-width:1.0417;"/><text fill="#ADAFAE" font-family="Verdana" font-size="11.4583" lengthAdjust="spacing" textLength="307.3441" x="248.1458" y="820.7434">setWeightedRoundRobin(WeightedRoundRobin): void</text><ellipse cx="234.6042" cy="842.0912" fill="transparent" rx="3.125" ry="3.125" style="stroke:#55B2DE;stroke-width:1.0417;"/><text fill="#ADAFAE" font-family="Verdana" font-size="11.4583" lengthAdjust="spacing" textLength="246.8241" x="248.1458" y="845.0858">getPolicyImpl(String): ILoadBalancerPolicy</text></g><!--class RoundRobin--><g id="elem_RoundRobin"><rect codeLine="50" fill="transparent" height="100.1104" id="RoundRobin" rx="4.1667" ry="4.1667" style="stroke:#55B2DE;stroke-width:1.0417;" width="246.8094" x="222.6771" y="980.2187"/><rect fill="#227FAB" height="34.759" rx="4.1667" ry="4.1667" style="stroke:#227FAB;stroke-width:1.0417;" width="246.8094" x="222.6771" y="980.2187"/><rect fill="#227FAB" height="4.1667" style="stroke:#227FAB;stroke-width:1.0417;" width="246.8094" x="222.6771" y="1010.8111"/><rect codeLine="50" fill="transparent" height="100.1104" id="RoundRobin" rx="4.1667" ry="4.1667" style="stroke:#55B2DE;stroke-width:1.0417;" width="246.8094" x="222.6771" y="980.2187"/><ellipse cx="302.1975" cy="997.5983" fill="transparent" rx="10.4167" ry="10.4167" style="stroke:#55B2DE;stroke-width:1.0417;"/><path d="M304.1079,1002.0233 Q303.6807,1002.243 303.2107,1002.3529 Q302.7407,1002.4628 302.2219,1002.4628 Q300.3787,1002.4628 299.4082,1001.2482 Q298.4377,1000.0336 298.4377,997.7386 Q298.4377,995.4376 299.4082,994.223 Q300.3787,993.0084 302.2219,993.0084 Q302.7407,993.0084 303.2168,993.1183 Q303.6929,993.2281 304.1079,993.4479 L304.1079,995.4498 Q303.644,995.0226 303.2076,994.8242 Q302.7712,994.6258 302.3074,994.6258 Q301.3186,994.6258 300.8151,995.4101 Q300.3115,996.1944 300.3115,997.7386 Q300.3115,999.2767 300.8151,1000.061 Q301.3186,1000.8453 302.3074,1000.8453 Q302.7712,1000.8453 303.2076,1000.647 Q303.644,1000.4486 304.1079,1000.0214 Z " fill="#2A9FD6"/><text fill="#ADAFAE" font-family="Verdana" font-size="11.4583" lengthAdjust="spacing" textLength="69.0186" x="327.1975" y="1002.1553">RoundRobin</text><line style="stroke:#55B2DE;stroke-width:1.0417;" x1="223.7188" x2="468.4448" y1="1014.9778" y2="1014.9778"/><rect fill="transparent" height="6.25" style="stroke:#55B2DE;stroke-width:1.0417;" width="6.25" x="231.0104" y="1029.7531"/><text fill="#ADAFAE" font-family="Verdana" font-size="11.4583" lengthAdjust="spacing" textLength="210.3511" x="247.6771" y="1035.8726">backendServerInUse: AtomicInteger</text><line style="stroke:#55B2DE;stroke-width:1.0417;" x1="223.7188" x2="468.4448" y1="1047.6534" y2="1047.6534"/><ellipse cx="234.1354" cy="1065.5538" fill="transparent" rx="3.125" ry="3.125" style="stroke:#55B2DE;stroke-width:1.0417;"/><text fill="#ADAFAE" font-family="Verdana" font-size="11.4583" lengthAdjust="spacing" textLength="103.0355" x="247.6771" y="1068.5483">getServerId(): int</text></g><!--class ServerManager--><g id="elem_ServerManager"><rect codeLine="54" fill="transparent" height="367.8762" id="ServerManager" rx="4.1667" ry="4.1667" style="stroke:#55B2DE;stroke-width:1.0417;" width="402.4928" x="80.2604" y="253.3542"/><rect fill="#227FAB" height="34.759" rx="4.1667" ry="4.1667" style="stroke:#227FAB;stroke-width:1.0417;" width="402.4928" x="80.2604" y="253.3542"/><rect fill="#227FAB" height="4.1667" style="stroke:#227FAB;stroke-width:1.0417;" width="402.4928" x="80.2604" y="283.9465"/><rect codeLine="54" fill="transparent" height="367.8762" id="ServerManager" rx="4.1667" ry="4.1667" style="stroke:#55B2DE;stroke-width:1.0417;" width="402.4928" x="80.2604" y="253.3542"/><ellipse cx="228.3462" cy="270.7337" fill="transparent" rx="10.4167" ry="10.4167" style="stroke:#55B2DE;stroke-width:1.0417;"/><path d="M230.2566,275.1587 Q229.8294,275.3784 229.3594,275.4883 Q228.8894,275.5982 228.3706,275.5982 Q226.5274,275.5982 225.5569,274.3836 Q224.5864,273.169 224.5864,270.8741 Q224.5864,268.573 225.5569,267.3584 Q226.5274,266.1438 228.3706,266.1438 Q228.8894,266.1438 229.3655,266.2537 Q229.8416,266.3636 230.2566,266.5833 L230.2566,268.5852 Q229.7927,268.158 229.3563,267.9596 Q228.9199,267.7613 228.4561,267.7613 Q227.4673,267.7613 226.9638,268.5456 Q226.4602,269.3299 226.4602,270.8741 Q226.4602,272.4121 226.9638,273.1964 Q227.4673,273.9807 228.4561,273.9807 Q228.9199,273.9807 229.3563,273.7824 Q229.7927,273.584 230.2566,273.1568 Z " fill="#2A9FD6"/><text fill="#ADAFAE" font-family="Verdana" font-size="11.4583" lengthAdjust="spacing" textLength="87.5712" x="253.3462" y="275.2907">ServerManager</text><line style="stroke:#55B2DE;stroke-width:1.0417;" x1="81.3021" x2="481.7115" y1="288.1132" y2="288.1132"/><rect fill="transparent" height="6.25" style="stroke:#55B2DE;stroke-width:1.0417;" width="6.25" x="88.5938" y="302.8885"/><text fill="#ADAFAE" font-family="Verdana" font-size="11.4583" lengthAdjust="spacing" textLength="237.587" x="105.2604" y="309.0081">serverHealthMap: Map&lt;String, Boolean&gt;</text><rect fill="transparent" height="6.25" style="stroke:#55B2DE;stroke-width:1.0417;" width="6.25" x="88.5938" y="327.2309"/><text fill="#ADAFAE" font-family="Verdana" font-size="11.4583" lengthAdjust="spacing" textLength="198.5738" x="105.2604" y="333.3504">serverHealthUrlsList: List&lt;String&gt;</text><rect fill="transparent" height="6.25" style="stroke:#55B2DE;stroke-width:1.0417;" width="6.25" x="88.5938" y="351.5732"/><text fill="#ADAFAE" font-family="Verdana" font-size="11.4583" lengthAdjust="spacing" textLength="201.7853" x="105.2604" y="357.6927">factory: LoadBalancerPolicyFactory</text><polygon fill="transparent" points="91.7188,374.8739,87.5521,381.1239,95.8854,381.1239" style="stroke:#2A9FD6;stroke-width:1.0417;"/><text fill="#ADAFAE" font-family="Verdana" font-size="11.4583" lengthAdjust="spacing" textLength="110.5606" x="105.2604" y="382.0351">policyName: String</text><rect fill="transparent" height="6.25" style="stroke:#55B2DE;stroke-width:1.0417;" width="6.25" x="88.5938" y="400.2579"/><text fill="#ADAFAE" font-family="Verdana" font-size="11.4583" lengthAdjust="spacing" textLength="163.7848" x="105.2604" y="406.3774">restTemplate: RestTemplate</text><polygon fill="transparent" points="91.7188,423.5586,87.5521,429.8086,95.8854,429.8086" style="stroke:#2A9FD6;stroke-width:1.0417;"/><text fill="#ADAFAE" font-family="Verdana" font-size="11.4583" lengthAdjust="spacing" textLength="139.8051" x="105.2604" y="430.7198">serverHealthUrls: String</text><polygon fill="transparent" points="91.7188,447.9009,87.5521,454.1509,95.8854,454.1509" style="stroke:#2A9FD6;stroke-width:1.0417;"/><text fill="#ADAFAE" font-family="Verdana" font-size="11.4583" lengthAdjust="spacing" textLength="102.5767" x="105.2604" y="455.0621">serverUrls: String</text><rect fill="transparent" height="6.25" style="stroke:#55B2DE;stroke-width:1.0417;" width="6.25" x="88.5938" y="473.2849"/><text fill="#ADAFAE" font-family="Verdana" font-size="11.4583" lengthAdjust="spacing" textLength="161.3454" x="105.2604" y="479.4045">serverUrlsList: List&lt;String&gt;</text><rect fill="transparent" height="6.25" style="stroke:#55B2DE;stroke-width:1.0417;" width="6.25" x="88.5938" y="497.6273"/><text fill="#ADAFAE" font-family="Verdana" font-size="11.4583" lengthAdjust="spacing" textLength="230.7332" x="105.2604" y="503.7468">loadBalancerPolicy: ILoadBalancerPolicy</text><line style="stroke:#55B2DE;stroke-width:1.0417;" x1="81.3021" x2="481.7115" y1="515.5276" y2="515.5276"/><ellipse cx="91.7188" cy="533.428" fill="transparent" rx="3.125" ry="3.125" style="stroke:#55B2DE;stroke-width:1.0417;"/><text fill="#ADAFAE" font-family="Verdana" font-size="11.4583" lengthAdjust="spacing" textLength="366.0344" x="105.2604" y="536.4225">setLoadBalancerPolicyFactory(LoadBalancerPolicyFactory): void</text><ellipse cx="91.7188" cy="557.7703" fill="transparent" rx="3.125" ry="3.125" style="stroke:#55B2DE;stroke-width:1.0417;"/><text fill="#ADAFAE" font-family="Verdana" font-size="11.4583" lengthAdjust="spacing" textLength="61.7116" x="105.2604" y="560.7649">init(): void</text><ellipse cx="91.7188" cy="582.1127" fill="transparent" rx="3.125" ry="3.125" style="stroke:#55B2DE;stroke-width:1.0417;"/><text fill="#ADAFAE" font-family="Verdana" font-size="11.4583" lengthAdjust="spacing" textLength="154.9449" x="105.2604" y="585.1072">getHealthyServer(): String</text><ellipse cx="91.7188" cy="606.455" fill="transparent" rx="3.125" ry="3.125" style="stroke:#55B2DE;stroke-width:1.0417;"/><text fill="#ADAFAE" font-family="Verdana" font-size="11.4583" lengthAdjust="spacing" textLength="282.6482" x="105.2604" y="609.4495">healthCheckExecutor(): ResponseEntity&lt;String&gt;</text></g><!--class WeightedRoundRobin--><g id="elem_WeightedRoundRobin"><rect codeLine="69" fill="transparent" height="221.8221" id="WeightedRoundRobin" rx="4.1667" ry="4.1667" style="stroke:#55B2DE;stroke-width:1.0417;" width="183.6878" x="506.3229" y="919.3646"/><rect fill="#227FAB" height="34.759" rx="4.1667" ry="4.1667" style="stroke:#227FAB;stroke-width:1.0417;" width="183.6878" x="506.3229" y="919.3646"/><rect fill="#227FAB" height="4.1667" style="stroke:#227FAB;stroke-width:1.0417;" width="183.6878" x="506.3229" y="949.9569"/><rect codeLine="69" fill="transparent" height="221.8221" id="WeightedRoundRobin" rx="4.1667" ry="4.1667" style="stroke:#55B2DE;stroke-width:1.0417;" width="183.6878" x="506.3229" y="919.3646"/><ellipse cx="529.3811" cy="936.7441" fill="transparent" rx="10.4167" ry="10.4167" style="stroke:#55B2DE;stroke-width:1.0417;"/><path d="M531.2915,941.1691 Q530.8642,941.3889 530.3942,941.4987 Q529.9243,941.6086 529.4055,941.6086 Q527.5622,941.6086 526.5918,940.394 Q525.6213,939.1794 525.6213,936.8845 Q525.6213,934.5834 526.5918,933.3688 Q527.5622,932.1542 529.4055,932.1542 Q529.9243,932.1542 530.4003,932.2641 Q530.8764,932.374 531.2915,932.5937 L531.2915,934.5957 Q530.8276,934.1684 530.3912,933.97 Q529.9548,933.7717 529.4909,933.7717 Q528.5022,933.7717 527.9986,934.556 Q527.4951,935.3403 527.4951,936.8845 Q527.4951,938.4226 527.9986,939.2069 Q528.5022,939.9912 529.4909,939.9912 Q529.9548,939.9912 530.3912,939.7928 Q530.8276,939.5944 531.2915,939.1672 Z " fill="#2A9FD6"/><text fill="#ADAFAE" font-family="Verdana" font-size="11.4583" lengthAdjust="spacing" textLength="123.1883" x="550.0143" y="941.3011">WeightedRoundRobin</text><line style="stroke:#55B2DE;stroke-width:1.0417;" x1="507.3646" x2="688.9691" y1="954.1236" y2="954.1236"/><rect fill="transparent" height="6.25" style="stroke:#55B2DE;stroke-width:1.0417;" width="6.25" x="514.6563" y="968.8989"/><text fill="#ADAFAE" font-family="Verdana" font-size="11.4583" lengthAdjust="spacing" textLength="147.2295" x="531.3229" y="975.0185">weightToServerId: int[][]</text><rect fill="transparent" height="6.25" style="stroke:#55B2DE;stroke-width:1.0417;" width="6.25" x="514.6563" y="993.2413"/><text fill="#ADAFAE" font-family="Verdana" font-size="11.4583" lengthAdjust="spacing" textLength="126.3606" x="531.3229" y="999.3608">serverWeights: String</text><rect fill="transparent" height="6.25" style="stroke:#55B2DE;stroke-width:1.0417;" width="6.25" x="514.6563" y="1017.5836"/><text fill="#ADAFAE" font-family="Verdana" font-size="11.4583" lengthAdjust="spacing" textLength="97.5693" x="531.3229" y="1023.7032">noOfWeights: int</text><rect fill="transparent" height="6.25" style="stroke:#55B2DE;stroke-width:1.0417;" width="6.25" x="514.6563" y="1041.926"/><text fill="#ADAFAE" font-family="Verdana" font-size="11.4583" lengthAdjust="spacing" textLength="122.1364" x="531.3229" y="1048.0455">backendServerId: int</text><rect fill="transparent" height="6.25" style="stroke:#55B2DE;stroke-width:1.0417;" width="6.25" x="514.6563" y="1066.2683"/><text fill="#ADAFAE" font-family="Verdana" font-size="11.4583" lengthAdjust="spacing" textLength="115.0869" x="531.3229" y="1072.3879">lock: ReentrantLock</text><line style="stroke:#55B2DE;stroke-width:1.0417;" x1="507.3646" x2="688.9691" y1="1084.1687" y2="1084.1687"/><ellipse cx="517.7813" cy="1102.069" fill="transparent" rx="3.125" ry="3.125" style="stroke:#55B2DE;stroke-width:1.0417;"/><text fill="#ADAFAE" font-family="Verdana" font-size="11.4583" lengthAdjust="spacing" textLength="61.7116" x="531.3229" y="1105.0635">init(): void</text><ellipse cx="517.7813" cy="1126.4113" fill="transparent" rx="3.125" ry="3.125" style="stroke:#55B2DE;stroke-width:1.0417;"/><text fill="#ADAFAE" font-family="Verdana" font-size="11.4583" lengthAdjust="spacing" textLength="103.0355" x="531.3229" y="1129.4059">getServerId(): int</text></g><!--link LoadBalancerController to ServerManager--><g id="link_LoadBalancerController_ServerManager"><path codeLine="79" d="M281.5,203.8437 C281.5,223.0104 281.5,225.2708 281.5,246.6875 " fill="transparent" id="LoadBalancerController-ServerManager" style="stroke:#595959;stroke-width:3.125;"/><polygon fill="#595959" points="281.5,191.3437,277.3333,197.5937,281.5,203.8437,285.6667,197.5937,281.5,191.3437" style="stroke:#595959;stroke-width:3.125;"/><polygon fill="#595959" points="281.5,252.9375,285.6667,243.5625,281.5,247.7292,277.3333,243.5625,281.5,252.9375" style="stroke:#595959;stroke-width:3.125;"/><text fill="#FFFFFF" font-family="Verdana" font-size="12.5" lengthAdjust="spacing" textLength="7.9468" x="268.3204" y="217.0777">1</text><text fill="#FFFFFF" font-family="Verdana" font-size="12.5" lengthAdjust="spacing" textLength="93.4998" x="288.7377" y="222.0966">serverManager</text><text fill="#FFFFFF" font-family="Verdana" font-size="12.5" lengthAdjust="spacing" textLength="7.9468" x="331.5142" y="237.2882">1</text></g><!--link LoadBalancerPolicyFactory to RoundRobin--><g id="link_LoadBalancerPolicyFactory_RoundRobin"><path codeLine="80" d="M346.3125,869.7292 C346.3125,910.4688 346.3125,938.8229 346.3125,973.5833 " fill="transparent" id="LoadBalancerPolicyFactory-RoundRobin" style="stroke:#595959;stroke-width:3.125;"/><polygon fill="#595959" points="346.3125,857.2292,342.1458,863.4792,346.3125,869.7292,350.4792,863.4792,346.3125,857.2292" style="stroke:#595959;stroke-width:3.125;"/><polygon fill="#595959" points="346.3125,979.8333,350.4792,970.4583,346.3125,974.625,342.1458,970.4583,346.3125,979.8333" style="stroke:#595959;stroke-width:3.125;"/><text fill="#FFFFFF" font-family="Verdana" font-size="12.5" lengthAdjust="spacing" textLength="7.9468" x="329.2495" y="882.9523">1</text><text fill="#FFFFFF" font-family="Verdana" font-size="12.5" lengthAdjust="spacing" textLength="71.936" x="264.5019" y="948.8131">roundRobin</text><text fill="#FFFFFF" font-family="Verdana" font-size="12.5" lengthAdjust="spacing" textLength="7.9468" x="296.4965" y="964.0047">1</text></g><!--link LoadBalancerPolicyFactory to WeightedRoundRobin--><g id="link_LoadBalancerPolicyFactory_WeightedRoundRobin"><path codeLine="81" d="M536.6354,869.7292 C536.6354,889.5104 536.6354,892.0313 536.6354,912.6771 " fill="transparent" id="LoadBalancerPolicyFactory-WeightedRoundRobin" style="stroke:#595959;stroke-width:3.125;"/><polygon fill="#595959" points="536.6354,857.2292,532.4688,863.4792,536.6354,869.7292,540.8021,863.4792,536.6354,857.2292" style="stroke:#595959;stroke-width:3.125;"/><polygon fill="#595959" points="536.6354,918.9271,540.8021,909.5521,536.6354,913.7187,532.4688,909.5521,536.6354,918.9271" style="stroke:#595959;stroke-width:3.125;"/><text fill="#FFFFFF" font-family="Verdana" font-size="12.5" lengthAdjust="spacing" textLength="7.9468" x="534.7388" y="882.9523">1</text><text fill="#FFFFFF" font-family="Verdana" font-size="12.5" lengthAdjust="spacing" textLength="132.2571" x="542.4413" y="888.0598">weightedRoundRobin</text><text fill="#FFFFFF" font-family="Verdana" font-size="12.5" lengthAdjust="spacing" textLength="7.9468" x="604.5964" y="903.2514">1</text></g><!--link RoundRobin to ILoadBalancerPolicy--><g id="link_RoundRobin_ILoadBalancerPolicy"><path codeLine="82" d="M320.0104,1080.8438 C320.0104,1117.375 320.0104,1147.7917 320.0104,1184.4583 " fill="transparent" id="RoundRobin-to-ILoadBalancerPolicy" style="stroke:#008200;stroke-width:3.125;stroke-dasharray:7.0,7.0;"/><polygon fill="transparent" points="320.0104,1203.2083,326.2604,1184.4583,313.7604,1184.4583,320.0104,1203.2083" style="stroke:#008200;stroke-width:3.125;"/></g><!--link ServerManager to ILoadBalancerPolicy--><g id="link_ServerManager_ILoadBalancerPolicy"><path codeLine="83" d="M151.4688,634.0938 C151.4688,874.9792 151.4688,1254.0208 151.4688,1254.0208 C151.4688,1254.0208 207.2292,1254.0208 261.2396,1254.0208 " fill="transparent" id="ServerManager-ILoadBalancerPolicy" style="stroke:#595959;stroke-width:3.125;"/><polygon fill="#595959" points="151.4688,621.5938,147.3021,627.8438,151.4688,634.0938,155.6354,627.8438,151.4688,621.5938" style="stroke:#595959;stroke-width:3.125;"/><polygon fill="#595959" points="267.4896,1254.0208,258.1146,1249.8542,262.2813,1254.0208,258.1146,1258.1875,267.4896,1254.0208" style="stroke:#595959;stroke-width:3.125;"/><text fill="#FFFFFF" font-family="Verdana" font-size="12.5" lengthAdjust="spacing" textLength="7.9468" x="133.5561" y="647.0687">1</text><text fill="#FFFFFF" font-family="Verdana" font-size="12.5" lengthAdjust="spacing" textLength="116.4246" x="138.0511" y="1229.9172">loadBalancerPolicy</text><text fill="#FFFFFF" font-family="Verdana" font-size="12.5" lengthAdjust="spacing" textLength="7.9468" x="192.29" y="1245.1089">1</text></g><!--link ServerManager to LoadBalancerPolicyFactory--><g id="link_ServerManager_LoadBalancerPolicyFactory"><path codeLine="84" d="M352.9479,633.8229 C352.9479,655.3333 352.9479,657.6979 352.9479,676.9583 " fill="transparent" id="ServerManager-LoadBalancerPolicyFactory" style="stroke:#595959;stroke-width:3.125;"/><polygon fill="#595959" points="352.9479,621.3229,348.7813,627.5729,352.9479,633.8229,357.1146,627.5729,352.9479,621.3229" style="stroke:#595959;stroke-width:3.125;"/><polygon fill="#595959" points="352.9479,683.2083,357.1146,673.8333,352.9479,678,348.7813,673.8333,352.9479,683.2083" style="stroke:#595959;stroke-width:3.125;"/><text fill="#FFFFFF" font-family="Verdana" font-size="12.5" lengthAdjust="spacing" textLength="7.9468" x="343.1021" y="647.4024">1</text><text fill="#FFFFFF" font-family="Verdana" font-size="12.5" lengthAdjust="spacing" textLength="43.6584" x="357.0502" y="652.4779">factory</text><text fill="#FFFFFF" font-family="Verdana" font-size="12.5" lengthAdjust="spacing" textLength="7.9468" x="374.906" y="667.6695">1</text></g><!--link WeightedRoundRobin to ILoadBalancerPolicy--><g id="link_WeightedRoundRobin_ILoadBalancerPolicy"><path codeLine="85" d="M505.9167,1110.2708 C443.4167,1110.2708 372.1563,1110.2708 372.1563,1110.2708 C372.1563,1110.2708 372.1563,1143.3333 372.1563,1184.8229 " fill="transparent" id="WeightedRoundRobin-to-ILoadBalancerPolicy" style="stroke:#008200;stroke-width:3.125;stroke-dasharray:7.0,7.0;"/><polygon fill="transparent" points="372.1563,1203.5729,378.4063,1184.8229,365.9063,1184.8229,372.1563,1203.5729" style="stroke:#008200;stroke-width:3.125;"/></g><!--SRC=[jLLjQzim4FxkNt7hlhXR3DbWi9aIQ4j70-qsqfPzo39Gv6iY8akUf7GDO_ljasKbbkFO7OKva5Zt-jpTeyiBiyGSWMxcKYqIkJQS2OoCBC18c4jZP0uPKqWDaoBIAoOAeaWEfPdP50XIcQMC8YOCgdj24SPNacHdX1D1KNsHdD4Dd9n0RJ0QmQy8u3KiqDoWUa0rpkBZjBI8VaUK4wqXZ75Q53O8AG5unvmm4TyOnSHYEhEU3v9bJxdUeZRQ-Vy1AYsOHrDQwhZF_zmQAiavAkUPW7PuhuaW2rGft8H7Pw1icblC2quCfZ09JYvpJeeKBebUNfFYfAfW06EBnlgFN6rB8ZAE4_onjhxnfJ55cOIZyQ81XAxLx-ZOfIgaq7WX33CRRr25rDi-Uw1nuzHNVpM-ZuGQgJQ-1KgkHJQHSoPiqjsxK_r4jbWQp2Q1oTUMR8kfbiJrwnQDjsbxnsrHw6CvLO4UswvxZbZz0LBk2gu3-GhdXAvGP9wRuaxRIPxQYy2edzHJx6tqjy6SIoJSbCDF6sCyav8Z4QEMvPtY-effaqBv7KmrWVjgAcdtm1pZ2YVvH79RHEN-BppTnn3uRfLxuYGGTo3cBQ271-DdtrbNtAa9cS04C_4UDQg2DjLyIkKElhruJdU-HBgwU4Iwjl7Yxdkr7NMRZNxUrLsubLkEE8PCPzDPqAlAkTb58J_Vx-GbgTgCp6e5btHLOaIxfuYmBQEhpkBRR8qwTbtr7BqvWbV9zEMx3-LdOCd1n2mPmL5Z2NuJrgn9-BqdwjueVLdgFUDI10rkFyzCqTvNBjM1cGQfUe60JJCSldyx70uok-KncoNVuU1VOXsmjtcTsDkNoM7_7wdyfd7nUniTzNRk6Rtv2m00]--></g></svg>