<svg xmlns="http://www.w3.org/2000/svg" xmlns:xlink="http://www.w3.org/1999/xlink" contentStyleType="text/css" data-diagram-type="CLASS" height="1025px" preserveAspectRatio="none" style="width:782px;height:1025px;" version="1.1" viewBox="0 0 782 1025" width="782.2917px" zoomAndPan="magnify"><defs/><g><!--class ILoadBalancerPolicy--><g id="elem_ILoadBalancerPolicy"><rect codeLine="27" fill="transparent" height="101.3763" id="ILoadBalancerPolicy" rx="4.1667" ry="4.1667" style="stroke:#55B2DE;stroke-width:1.0417;" width="156.4346" x="216.8229" y="911.5729"/><rect fill="#227FAB" height="60.3673" rx="4.1667" ry="4.1667" style="stroke:#227FAB;stroke-width:1.0417;" width="156.4346" x="216.8229" y="911.5729"/><rect fill="#227FAB" height="4.1667" style="stroke:#227FAB;stroke-width:1.0417;" width="156.4346" x="216.8229" y="967.7736"/><rect codeLine="27" fill="transparent" height="101.3763" id="ILoadBalancerPolicy" rx="4.1667" ry="4.1667" style="stroke:#55B2DE;stroke-width:1.0417;" width="156.4346" x="216.8229" y="911.5729"/><ellipse cx="231.4063" cy="941.7566" fill="transparent" rx="10.4167" ry="10.4167" style="stroke:#55B2DE;stroke-width:1.0417;"/><path d="M228.8102,938.9184 L228.8102,937.3315 L234.2362,937.3315 L234.2362,938.9184 L232.4235,938.9184 L232.4235,944.8572 L234.2362,944.8572 L234.2362,946.4441 L228.8102,946.4441 L228.8102,944.8572 L230.623,944.8572 L230.623,938.9184 Z " fill="#2A9FD6"/><text fill="#ADAFAE" font-family="Verdana" font-size="12.5" font-style="italic" lengthAdjust="spacing" textLength="71.0205" x="272.03" y="934.5567">&#171;interface&#187;</text><text fill="#ADAFAE" font-family="Verdana" font-size="11.4583" font-style="italic" lengthAdjust="spacing" textLength="114.768" x="250.1563" y="959.1178">ILoadBalancerPolicy</text><line style="stroke:#55B2DE;stroke-width:1.0417;" x1="217.8646" x2="372.2159" y1="971.9402" y2="971.9402"/><text fill="#ADAFAE" font-family="Verdana" font-size="11.4583" lengthAdjust="spacing" textLength="72.286" x="228.2813" y="992.8351">serverId: int</text><line style="stroke:#55B2DE;stroke-width:1.0417;" x1="217.8646" x2="372.2159" y1="1004.6159" y2="1004.6159"/></g><!--class LoadBalancerApplication--><g id="elem_LoadBalancerApplication"><rect codeLine="30" fill="transparent" height="100.1104" id="LoadBalancerApplication" rx="4.1667" ry="4.1667" style="stroke:#55B2DE;stroke-width:1.0417;" width="192.2368" x="578.0938" y="42.0521"/><rect fill="#227FAB" height="34.759" rx="4.1667" ry="4.1667" style="stroke:#227FAB;stroke-width:1.0417;" width="192.2368" x="578.0938" y="42.0521"/><rect fill="#227FAB" height="4.1667" style="stroke:#227FAB;stroke-width:1.0417;" width="192.2368" x="578.0938" y="72.6444"/><rect codeLine="30" fill="transparent" height="100.1104" id="LoadBalancerApplication" rx="4.1667" ry="4.1667" style="stroke:#55B2DE;stroke-width:1.0417;" width="192.2368" x="578.0938" y="42.0521"/><ellipse cx="597.3577" cy="59.4316" fill="transparent" rx="10.4167" ry="10.4167" style="stroke:#55B2DE;stroke-width:1.0417;"/><path d="M599.2681,63.8566 Q598.8409,64.0764 598.3709,64.1862 Q597.9009,64.2961 597.3821,64.2961 Q595.5389,64.2961 594.5684,63.0815 Q593.598,61.8669 593.598,59.572 Q593.598,57.2709 594.5684,56.0563 Q595.5389,54.8417 597.3821,54.8417 Q597.9009,54.8417 598.377,54.9516 Q598.8531,55.0615 599.2681,55.2812 L599.2681,57.2832 Q598.8043,56.8559 598.3678,56.6575 Q597.9314,56.4592 597.4676,56.4592 Q596.4788,56.4592 595.9753,57.2435 Q595.4717,58.0278 595.4717,59.572 Q595.4717,61.1101 595.9753,61.8944 Q596.4788,62.6787 597.4676,62.6787 Q597.9314,62.6787 598.3678,62.4803 Q598.8043,62.2819 599.2681,61.8547 Z " fill="#2A9FD6"/><text fill="#ADAFAE" font-family="Verdana" font-size="11.4583" lengthAdjust="spacing" textLength="140.1688" x="617.1479" y="63.9886">LoadBalancerApplication</text><line style="stroke:#55B2DE;stroke-width:1.0417;" x1="579.1354" x2="769.2889" y1="76.8111" y2="76.8111"/><line style="stroke:#55B2DE;stroke-width:1.0417;" x1="579.1354" x2="769.2889" y1="85.1444" y2="85.1444"/><ellipse cx="589.5521" cy="103.0448" fill="transparent" rx="3.125" ry="3.125" style="stroke:#55B2DE;stroke-width:1.0417;"/><text fill="#ADAFAE" font-family="Verdana" font-size="11.4583" lengthAdjust="spacing" textLength="155.7785" x="603.0938" y="106.0393">LoadBalancerApplication():</text><ellipse cx="589.5521" cy="127.3871" fill="transparent" rx="3.125" ry="3.125" style="stroke:#55B2DE;stroke-width:1.0417;"/><text fill="#ADAFAE" font-family="Verdana" font-size="11.4583" lengthAdjust="spacing" textLength="117.2577" x="603.0938" y="130.3817">main(String[]): void</text></g><!--class LoadBalancerController--><g id="elem_LoadBalancerController"><rect codeLine="34" fill="transparent" height="148.7951" id="LoadBalancerController" rx="4.1667" ry="4.1667" style="stroke:#55B2DE;stroke-width:1.0417;" width="523.4207" x="17.7083" y="17.7083"/><rect fill="#227FAB" height="34.759" rx="4.1667" ry="4.1667" style="stroke:#227FAB;stroke-width:1.0417;" width="523.4207" x="17.7083" y="17.7083"/><rect fill="#227FAB" height="4.1667" style="stroke:#227FAB;stroke-width:1.0417;" width="523.4207" x="17.7083" y="48.3007"/><rect codeLine="34" fill="transparent" height="148.7951" id="LoadBalancerController" rx="4.1667" ry="4.1667" style="stroke:#55B2DE;stroke-width:1.0417;" width="523.4207" x="17.7083" y="17.7083"/><ellipse cx="203.2323" cy="35.0878" fill="transparent" rx="10.4167" ry="10.4167" style="stroke:#55B2DE;stroke-width:1.0417;"/><path d="M205.1427,39.5129 Q204.7155,39.7326 204.2455,39.8425 Q203.7755,39.9523 203.2567,39.9523 Q201.4135,39.9523 200.443,38.7377 Q199.4726,37.5231 199.4726,35.2282 Q199.4726,32.9272 200.443,31.7126 Q201.4135,30.498 203.2567,30.498 Q203.7755,30.498 204.2516,30.6079 Q204.7277,30.7177 205.1427,30.9374 L205.1427,32.9394 Q204.6789,32.5122 204.2425,32.3138 Q203.8061,32.1154 203.3422,32.1154 Q202.3534,32.1154 201.8499,32.8997 Q201.3463,33.684 201.3463,35.2282 Q201.3463,36.7663 201.8499,37.5506 Q202.3534,38.3349 203.3422,38.3349 Q203.8061,38.3349 204.2425,38.1365 Q204.6789,37.9382 205.1427,37.5109 Z " fill="#2A9FD6"/><text fill="#ADAFAE" font-family="Verdana" font-size="11.4583" lengthAdjust="spacing" textLength="133.6227" x="228.2323" y="39.6449">LoadBalancerController</text><line style="stroke:#55B2DE;stroke-width:1.0417;" x1="18.75" x2="540.0874" y1="52.4673" y2="52.4673"/><rect fill="transparent" height="6.25" style="stroke:#55B2DE;stroke-width:1.0417;" width="6.25" x="26.0417" y="67.2427"/><text fill="#ADAFAE" font-family="Verdana" font-size="11.4583" lengthAdjust="spacing" textLength="182.5109" x="42.7083" y="73.3622">serverManager: ServerManager</text><text fill="#ADAFAE" font-family="Verdana" font-size="11.4583" lengthAdjust="spacing" textLength="182.5109" x="42.7083" y="97.7046">serverManager: ServerManager</text><line style="stroke:#55B2DE;stroke-width:1.0417;" x1="18.75" x2="540.0874" y1="109.4854" y2="109.4854"/><ellipse cx="29.1667" cy="127.3857" fill="transparent" rx="3.125" ry="3.125" style="stroke:#55B2DE;stroke-width:1.0417;"/><text fill="#ADAFAE" font-family="Verdana" font-size="11.4583" lengthAdjust="spacing" textLength="149.2325" x="42.7083" y="130.3802">LoadBalancerController():</text><ellipse cx="29.1667" cy="151.7281" fill="transparent" rx="3.125" ry="3.125" style="stroke:#55B2DE;stroke-width:1.0417;"/><text fill="#ADAFAE" font-family="Verdana" font-size="11.4583" lengthAdjust="spacing" textLength="486.9624" x="42.7083" y="154.7226">handleRequest(HttpServletRequest, Map&lt;String, String&gt;): ResponseEntity&lt;String&gt;</text></g><!--class LoadBalancerPolicyFactory--><g id="elem_LoadBalancerPolicyFactory"><rect codeLine="40" fill="transparent" height="197.4798" id="LoadBalancerPolicyFactory" rx="4.1667" ry="4.1667" style="stroke:#55B2DE;stroke-width:1.0417;" width="290.1138" x="234.3646" y="464.6354"/><rect fill="#227FAB" height="34.759" rx="4.1667" ry="4.1667" style="stroke:#227FAB;stroke-width:1.0417;" width="290.1138" x="234.3646" y="464.6354"/><rect fill="#227FAB" height="4.1667" style="stroke:#227FAB;stroke-width:1.0417;" width="290.1138" x="234.3646" y="495.2278"/><rect codeLine="40" fill="transparent" height="197.4798" id="LoadBalancerPolicyFactory" rx="4.1667" ry="4.1667" style="stroke:#55B2DE;stroke-width:1.0417;" width="290.1138" x="234.3646" y="464.6354"/><ellipse cx="293.7798" cy="482.0149" fill="transparent" rx="10.4167" ry="10.4167" style="stroke:#55B2DE;stroke-width:1.0417;"/><path d="M295.6902,486.44 Q295.2629,486.6597 294.7929,486.7696 Q294.323,486.8794 293.8042,486.8794 Q291.9609,486.8794 290.9905,485.6648 Q290.02,484.4502 290.02,482.1553 Q290.02,479.8543 290.9905,478.6397 Q291.9609,477.4251 293.8042,477.4251 Q294.323,477.4251 294.7991,477.5349 Q295.2751,477.6448 295.6902,477.8645 L295.6902,479.8665 Q295.2263,479.4392 294.7899,479.2409 Q294.3535,479.0425 293.8896,479.0425 Q292.9009,479.0425 292.3973,479.8268 Q291.8938,480.6111 291.8938,482.1553 Q291.8938,483.6934 292.3973,484.4777 Q292.9009,485.262 293.8896,485.262 Q294.3535,485.262 294.7899,485.0636 Q295.2263,484.8653 295.6902,484.438 Z " fill="#2A9FD6"/><text fill="#ADAFAE" font-family="Verdana" font-size="11.4583" lengthAdjust="spacing" textLength="152.5335" x="318.7798" y="486.572">LoadBalancerPolicyFactory</text><line style="stroke:#55B2DE;stroke-width:1.0417;" x1="235.4063" x2="523.4367" y1="499.3944" y2="499.3944"/><rect fill="transparent" height="6.25" style="stroke:#55B2DE;stroke-width:1.0417;" width="6.25" x="242.6979" y="514.1698"/><text fill="#ADAFAE" font-family="Verdana" font-size="11.4583" lengthAdjust="spacing" textLength="144.1915" x="259.3646" y="520.2893">roundRobin: RoundRobin</text><rect fill="transparent" height="6.25" style="stroke:#55B2DE;stroke-width:1.0417;" width="6.25" x="242.6979" y="538.5121"/><text fill="#ADAFAE" font-family="Verdana" font-size="11.4583" lengthAdjust="spacing" textLength="253.6555" x="259.3646" y="544.6317">weightedRoundRobin: WeightedRoundRobin</text><text fill="#ADAFAE" font-family="Verdana" font-size="11.4583" lengthAdjust="spacing" textLength="253.6555" x="259.3646" y="568.974">weightedRoundRobin: WeightedRoundRobin</text><text fill="#ADAFAE" font-family="Verdana" font-size="11.4583" lengthAdjust="spacing" textLength="144.1915" x="259.3646" y="593.3163">roundRobin: RoundRobin</text><line style="stroke:#55B2DE;stroke-width:1.0417;" x1="235.4063" x2="523.4367" y1="605.0971" y2="605.0971"/><ellipse cx="245.8229" cy="622.9975" fill="transparent" rx="3.125" ry="3.125" style="stroke:#55B2DE;stroke-width:1.0417;"/><text fill="#ADAFAE" font-family="Verdana" font-size="11.4583" lengthAdjust="spacing" textLength="168.1432" x="259.3646" y="625.992">LoadBalancerPolicyFactory():</text><ellipse cx="245.8229" cy="647.3398" fill="transparent" rx="3.125" ry="3.125" style="stroke:#55B2DE;stroke-width:1.0417;"/><text fill="#ADAFAE" font-family="Verdana" font-size="11.4583" lengthAdjust="spacing" textLength="246.8241" x="259.3646" y="650.3344">getPolicyImpl(String): ILoadBalancerPolicy</text></g><!--class RoundRobin--><g id="elem_RoundRobin"><rect codeLine="48" fill="transparent" height="100.1104" id="RoundRobin" rx="4.1667" ry="4.1667" style="stroke:#55B2DE;stroke-width:1.0417;" width="121.0866" x="234.5" y="736.7917"/><rect fill="#227FAB" height="34.759" rx="4.1667" ry="4.1667" style="stroke:#227FAB;stroke-width:1.0417;" width="121.0866" x="234.5" y="736.7917"/><rect fill="#227FAB" height="4.1667" style="stroke:#227FAB;stroke-width:1.0417;" width="121.0866" x="234.5" y="767.384"/><rect codeLine="48" fill="transparent" height="100.1104" id="RoundRobin" rx="4.1667" ry="4.1667" style="stroke:#55B2DE;stroke-width:1.0417;" width="121.0866" x="234.5" y="736.7917"/><ellipse cx="253.764" cy="754.1712" fill="transparent" rx="10.4167" ry="10.4167" style="stroke:#55B2DE;stroke-width:1.0417;"/><path d="M255.6744,758.5962 Q255.2471,758.8159 254.7772,758.9258 Q254.3072,759.0357 253.7884,759.0357 Q251.9451,759.0357 250.9747,757.8211 Q250.0042,756.6065 250.0042,754.3116 Q250.0042,752.0105 250.9747,750.7959 Q251.9451,749.5813 253.7884,749.5813 Q254.3072,749.5813 254.7833,749.6912 Q255.2593,749.8011 255.6744,750.0208 L255.6744,752.0227 Q255.2105,751.5955 254.7741,751.3971 Q254.3377,751.1988 253.8738,751.1988 Q252.8851,751.1988 252.3815,751.9831 Q251.878,752.7674 251.878,754.3116 Q251.878,755.8496 252.3815,756.6339 Q252.8851,757.4182 253.8738,757.4182 Q254.3377,757.4182 254.7741,757.2199 Q255.2105,757.0215 255.6744,756.5943 Z " fill="#2A9FD6"/><text fill="#ADAFAE" font-family="Verdana" font-size="11.4583" lengthAdjust="spacing" textLength="69.0186" x="273.5541" y="758.7282">RoundRobin</text><line style="stroke:#55B2DE;stroke-width:1.0417;" x1="235.5417" x2="354.545" y1="771.5507" y2="771.5507"/><text fill="#ADAFAE" font-family="Verdana" font-size="11.4583" lengthAdjust="spacing" textLength="72.286" x="245.9583" y="792.4456">serverId: int</text><line style="stroke:#55B2DE;stroke-width:1.0417;" x1="235.5417" x2="354.545" y1="804.2264" y2="804.2264"/><ellipse cx="245.9583" cy="822.1267" fill="transparent" rx="3.125" ry="3.125" style="stroke:#55B2DE;stroke-width:1.0417;"/><text fill="#ADAFAE" font-family="Verdana" font-size="11.4583" lengthAdjust="spacing" textLength="84.6283" x="259.5" y="825.1212">RoundRobin():</text></g><!--class ServerManager--><g id="elem_ServerManager"><rect codeLine="52" fill="transparent" height="173.1374" id="ServerManager" rx="4.1667" ry="4.1667" style="stroke:#55B2DE;stroke-width:1.0417;" width="333.9813" x="112.4271" y="229"/><rect fill="#227FAB" height="34.759" rx="4.1667" ry="4.1667" style="stroke:#227FAB;stroke-width:1.0417;" width="333.9813" x="112.4271" y="229"/><rect fill="#227FAB" height="4.1667" style="stroke:#227FAB;stroke-width:1.0417;" width="333.9813" x="112.4271" y="259.5923"/><rect codeLine="52" fill="transparent" height="173.1374" id="ServerManager" rx="4.1667" ry="4.1667" style="stroke:#55B2DE;stroke-width:1.0417;" width="333.9813" x="112.4271" y="229"/><ellipse cx="226.2571" cy="246.3795" fill="transparent" rx="10.4167" ry="10.4167" style="stroke:#55B2DE;stroke-width:1.0417;"/><path d="M228.1675,250.8046 Q227.7403,251.0243 227.2703,251.1341 Q226.8004,251.244 226.2816,251.244 Q224.4383,251.244 223.4678,250.0294 Q222.4974,248.8148 222.4974,246.5199 Q222.4974,244.2189 223.4678,243.0043 Q224.4383,241.7897 226.2816,241.7897 Q226.8004,241.7897 227.2764,241.8995 Q227.7525,242.0094 228.1675,242.2291 L228.1675,244.2311 Q227.7037,243.8038 227.2673,243.6055 Q226.8309,243.4071 226.367,243.4071 Q225.3782,243.4071 224.8747,244.1914 Q224.3712,244.9757 224.3712,246.5199 Q224.3712,248.058 224.8747,248.8423 Q225.3782,249.6266 226.367,249.6266 Q226.8309,249.6266 227.2673,249.4282 Q227.7037,249.2298 228.1675,248.8026 Z " fill="#2A9FD6"/><text fill="#ADAFAE" font-family="Verdana" font-size="11.4583" lengthAdjust="spacing" textLength="87.5712" x="251.2571" y="250.9365">ServerManager</text><line style="stroke:#55B2DE;stroke-width:1.0417;" x1="113.4688" x2="445.3667" y1="263.759" y2="263.759"/><text fill="#ADAFAE" font-family="Verdana" font-size="11.4583" lengthAdjust="spacing" textLength="311.0647" x="123.8854" y="284.6539">loadBalancerPolicyFactory: LoadBalancerPolicyFactory</text><text fill="#ADAFAE" font-family="Verdana" font-size="11.4583" lengthAdjust="spacing" textLength="124.6989" x="123.8854" y="308.9962">healthyServer: String</text><line style="stroke:#55B2DE;stroke-width:1.0417;" x1="113.4688" x2="445.3667" y1="320.777" y2="320.777"/><ellipse cx="123.8854" cy="338.6774" fill="transparent" rx="3.125" ry="3.125" style="stroke:#55B2DE;stroke-width:1.0417;"/><text fill="#ADAFAE" font-family="Verdana" font-size="11.4583" lengthAdjust="spacing" textLength="103.1809" x="137.4271" y="341.6719">ServerManager():</text><ellipse cx="123.8854" cy="363.0197" fill="transparent" rx="3.125" ry="3.125" style="stroke:#55B2DE;stroke-width:1.0417;"/><text fill="#ADAFAE" font-family="Verdana" font-size="11.4583" lengthAdjust="spacing" textLength="282.6482" x="137.4271" y="366.0143">healthCheckExecutor(): ResponseEntity&lt;String&gt;</text><ellipse cx="123.8854" cy="387.3621" fill="transparent" rx="3.125" ry="3.125" style="stroke:#55B2DE;stroke-width:1.0417;"/><text fill="#ADAFAE" font-family="Verdana" font-size="11.4583" lengthAdjust="spacing" textLength="61.7116" x="137.4271" y="390.3566">init(): void</text></g><!--class WeightedRoundRobin--><g id="elem_WeightedRoundRobin"><rect codeLine="59" fill="transparent" height="124.4527" id="WeightedRoundRobin" rx="4.1667" ry="4.1667" style="stroke:#55B2DE;stroke-width:1.0417;" width="175.2563" x="391.7917" y="724.6146"/><rect fill="#227FAB" height="34.759" rx="4.1667" ry="4.1667" style="stroke:#227FAB;stroke-width:1.0417;" width="175.2563" x="391.7917" y="724.6146"/><rect fill="#227FAB" height="4.1667" style="stroke:#227FAB;stroke-width:1.0417;" width="175.2563" x="391.7917" y="755.2069"/><rect codeLine="59" fill="transparent" height="124.4527" id="WeightedRoundRobin" rx="4.1667" ry="4.1667" style="stroke:#55B2DE;stroke-width:1.0417;" width="175.2563" x="391.7917" y="724.6146"/><ellipse cx="411.0556" cy="741.9941" fill="transparent" rx="10.4167" ry="10.4167" style="stroke:#55B2DE;stroke-width:1.0417;"/><path d="M412.966,746.4191 Q412.5388,746.6389 412.0688,746.7487 Q411.5988,746.8586 411.08,746.8586 Q409.2368,746.8586 408.2663,745.644 Q407.2959,744.4294 407.2959,742.1345 Q407.2959,739.8334 408.2663,738.6188 Q409.2368,737.4042 411.08,737.4042 Q411.5988,737.4042 412.0749,737.5141 Q412.551,737.624 412.966,737.8437 L412.966,739.8457 Q412.5022,739.4184 412.0658,739.22 Q411.6294,739.0217 411.1655,739.0217 Q410.1767,739.0217 409.6732,739.806 Q409.1696,740.5903 409.1696,742.1345 Q409.1696,743.6726 409.6732,744.4569 Q410.1767,745.2412 411.1655,745.2412 Q411.6294,745.2412 412.0658,745.0428 Q412.5022,744.8444 412.966,744.4172 Z " fill="#2A9FD6"/><text fill="#ADAFAE" font-family="Verdana" font-size="11.4583" lengthAdjust="spacing" textLength="123.1883" x="430.8458" y="746.5511">WeightedRoundRobin</text><line style="stroke:#55B2DE;stroke-width:1.0417;" x1="392.8333" x2="566.0063" y1="759.3736" y2="759.3736"/><text fill="#ADAFAE" font-family="Verdana" font-size="11.4583" lengthAdjust="spacing" textLength="72.286" x="403.25" y="780.2685">serverId: int</text><line style="stroke:#55B2DE;stroke-width:1.0417;" x1="392.8333" x2="566.0063" y1="792.0493" y2="792.0493"/><ellipse cx="403.25" cy="809.9496" fill="transparent" rx="3.125" ry="3.125" style="stroke:#55B2DE;stroke-width:1.0417;"/><text fill="#ADAFAE" font-family="Verdana" font-size="11.4583" lengthAdjust="spacing" textLength="138.798" x="416.7917" y="812.9442">WeightedRoundRobin():</text><ellipse cx="403.25" cy="834.292" fill="transparent" rx="3.125" ry="3.125" style="stroke:#55B2DE;stroke-width:1.0417;"/><text fill="#ADAFAE" font-family="Verdana" font-size="11.4583" lengthAdjust="spacing" textLength="61.7116" x="416.7917" y="837.2865">init(): void</text></g><!--link LoadBalancerController to ServerManager--><g id="link_LoadBalancerController_ServerManager"><path codeLine="65" d="M279.4167,179.3229 C279.4167,199.1146 279.4167,201.9062 279.4167,222.2917 " fill="transparent" id="LoadBalancerController-ServerManager" style="stroke:#595959;stroke-width:3.125;"/><polygon fill="#595959" points="279.4167,166.8229,275.25,173.0729,279.4167,179.3229,283.5833,173.0729,279.4167,166.8229" style="stroke:#595959;stroke-width:3.125;"/><polygon fill="#595959" points="279.4167,228.5417,283.5833,219.1667,279.4167,223.3333,275.25,219.1667,279.4167,228.5417" style="stroke:#595959;stroke-width:3.125;"/><text fill="#FFFFFF" font-family="Verdana" font-size="12.5" lengthAdjust="spacing" textLength="7.9468" x="266.1304" y="192.6668">1</text><text fill="#FFFFFF" font-family="Verdana" font-size="12.5" lengthAdjust="spacing" textLength="93.4998" x="288.603" y="197.4807">serverManager</text><text fill="#FFFFFF" font-family="Verdana" font-size="12.5" lengthAdjust="spacing" textLength="7.9468" x="331.3795" y="212.6723">1</text></g><!--link LoadBalancerPolicyFactory to RoundRobin--><g id="link_LoadBalancerPolicyFactory_RoundRobin"><path codeLine="66" d="M295.0417,674.875 C295.0417,700.4375 295.0417,708.1563 295.0417,730.0729 " fill="transparent" id="LoadBalancerPolicyFactory-RoundRobin" style="stroke:#595959;stroke-width:3.125;"/><polygon fill="#595959" points="295.0417,662.375,290.875,668.625,295.0417,674.875,299.2083,668.625,295.0417,662.375" style="stroke:#595959;stroke-width:3.125;"/><polygon fill="#595959" points="295.0417,736.3229,299.2083,726.9479,295.0417,731.1146,290.875,726.9479,295.0417,736.3229" style="stroke:#595959;stroke-width:3.125;"/><text fill="#FFFFFF" font-family="Verdana" font-size="12.5" lengthAdjust="spacing" textLength="7.9468" x="275.7188" y="688.3611">1</text><text fill="#FFFFFF" font-family="Verdana" font-size="12.5" lengthAdjust="spacing" textLength="71.936" x="213.2042" y="705.293">roundRobin</text><text fill="#FFFFFF" font-family="Verdana" font-size="12.5" lengthAdjust="spacing" textLength="7.9468" x="245.1988" y="720.4847">1</text></g><!--link LoadBalancerPolicyFactory to WeightedRoundRobin--><g id="link_LoadBalancerPolicyFactory_WeightedRoundRobin"><path codeLine="67" d="M458.1354,674.875 C458.1354,695.8854 458.1354,698.7604 458.1354,717.9687 " fill="transparent" id="LoadBalancerPolicyFactory-WeightedRoundRobin" style="stroke:#595959;stroke-width:3.125;"/><polygon fill="#595959" points="458.1354,662.375,453.9688,668.625,458.1354,674.875,462.3021,668.625,458.1354,662.375" style="stroke:#595959;stroke-width:3.125;"/><polygon fill="#595959" points="458.1354,724.2187,462.3021,714.8437,458.1354,719.0104,453.9688,714.8437,458.1354,724.2187" style="stroke:#595959;stroke-width:3.125;"/><text fill="#FFFFFF" font-family="Verdana" font-size="12.5" lengthAdjust="spacing" textLength="7.9468" x="450.7898" y="688.3611">1</text><text fill="#FFFFFF" font-family="Verdana" font-size="12.5" lengthAdjust="spacing" textLength="132.2571" x="468.2708" y="693.2139">weightedRoundRobin</text><text fill="#FFFFFF" font-family="Verdana" font-size="12.5" lengthAdjust="spacing" textLength="7.9468" x="530.4259" y="708.4056">1</text></g><!--link RoundRobin to ILoadBalancerPolicy--><g id="link_RoundRobin_ILoadBalancerPolicy"><path codeLine="68" d="M295.0417,837.1146 C295.0417,860.2917 295.0417,869.0313 295.0417,892.3229 " fill="transparent" id="RoundRobin-to-ILoadBalancerPolicy" style="stroke:#008200;stroke-width:3.125;stroke-dasharray:7.0,7.0;"/><polygon fill="transparent" points="295.0417,911.0729,301.2917,892.3229,288.7917,892.3229,295.0417,911.0729" style="stroke:#008200;stroke-width:3.125;"/></g><!--link ServerManager to ILoadBalancerPolicy--><g id="link_ServerManager_ILoadBalancerPolicy"><path codeLine="69" d="M225.5938,414.9479 C225.5938,551.875 225.5938,794.8646 225.5938,905.0833 " fill="transparent" id="ServerManager-ILoadBalancerPolicy" style="stroke:#595959;stroke-width:3.125;"/><polygon fill="#595959" points="225.5938,402.4479,221.4271,408.6979,225.5938,414.9479,229.7604,408.6979,225.5938,402.4479" style="stroke:#595959;stroke-width:3.125;"/><polygon fill="#595959" points="225.5938,911.3333,229.7604,901.9583,225.5938,906.125,221.4271,901.9583,225.5938,911.3333" style="stroke:#595959;stroke-width:3.125;"/><text fill="#FFFFFF" font-family="Verdana" font-size="12.5" lengthAdjust="spacing" textLength="7.9468" x="208.1252" y="428.1669">1</text><text fill="#FFFFFF" font-family="Verdana" font-size="12.5" lengthAdjust="spacing" textLength="116.4246" x="89.4901" y="880.2568">loadBalancerPolicy</text><text fill="#FFFFFF" font-family="Verdana" font-size="12.5" lengthAdjust="spacing" textLength="7.9468" x="143.729" y="895.4484">1</text></g><!--link ServerManager to LoadBalancerPolicyFactory--><g id="link_ServerManager_LoadBalancerPolicyFactory"><path codeLine="70" d="M340.3854,415.0937 C340.3854,435.0313 340.3854,437.625 340.3854,458.0417 " fill="transparent" id="ServerManager-LoadBalancerPolicyFactory" style="stroke:#595959;stroke-width:3.125;"/><polygon fill="#595959" points="340.3854,402.5937,336.2188,408.8437,340.3854,415.0937,344.5521,408.8437,340.3854,402.5937" style="stroke:#595959;stroke-width:3.125;"/><polygon fill="#595959" points="340.3854,464.2917,344.5521,454.9167,340.3854,459.0833,336.2188,454.9167,340.3854,464.2917" style="stroke:#595959;stroke-width:3.125;"/><text fill="#FFFFFF" font-family="Verdana" font-size="12.5" lengthAdjust="spacing" textLength="7.9468" x="332.0643" y="428.3244">1</text><text fill="#FFFFFF" font-family="Verdana" font-size="12.5" lengthAdjust="spacing" textLength="43.6584" x="344.7876" y="433.4261">factory</text><text fill="#FFFFFF" font-family="Verdana" font-size="12.5" lengthAdjust="spacing" textLength="7.9468" x="362.6434" y="448.6177">1</text></g><!--link WeightedRoundRobin to ILoadBalancerPolicy--><g id="link_WeightedRoundRobin_ILoadBalancerPolicy"><path codeLine="71" d="M391.3854,843.1563 C375.7917,843.1563 364.4271,843.1563 364.4271,843.1563 C364.4271,843.1563 364.4271,860.0313 364.4271,892.3125 " fill="transparent" id="WeightedRoundRobin-to-ILoadBalancerPolicy" style="stroke:#008200;stroke-width:3.125;stroke-dasharray:7.0,7.0;"/><polygon fill="transparent" points="364.4271,911.0625,370.6771,892.3125,358.1771,892.3125,364.4271,911.0625" style="stroke:#008200;stroke-width:3.125;"/></g><!--SRC=[hLHTYzD057sVNt6jBz5je0g2XbBGPSM22z9zy66jC4tk9iDEPkBaTZM8_tqdoJGVJKPKd3wqlH_dt7Fc9ayemnmXhWxQfA4-aXGA6Ua2ICD14-aS4c4m9g4LA- -5AhZXETHbL1K8sb2c6HEAqDpn667xKVFa7PTSnMW-QIdY2jPhw0is6_Z90A14yu1ccqHrZlrYiUHb2SFkjqLXstbDtRHS-BB1imYQVCw52cx829NUxctmGOja5lfIAp9QIZGpo7tI0OTks6kkU8ecWflXtwO_uogHkCDlHomf-41Kr3KIoOMMSCsBTJlQ4jhlZKNVOLbeLUAL8a6LAzZq_dWevpIrPh_dCMbJpSWQvJjbHXzLijC7eUmmtUyczHr5cX4ckq79vqciuKcHMlXjNaXt0vPXPXbgQNyCx9lk9ByFERrzm0dqhDd8JTSxYdKhbI6Nb5rc6DzV_S3uQCqBVdTl5vP7K71QFZk1zDr1vB-Ukgzbhjgn8hSpdOAfNqx6DD5fEP_it1lcUKJiMRnOmFFmzkchD_LdMKZxfEt33In6Q_f5sRAnjyF3_ElgnUyte04Vo3qx_m8-NSI6PCRR4ucV7op1QlNwvMgrJ7YPOR8FlyBiwz11-NtopZjTfMRU_qjorxhM8FizPNwJ_jQ9Hm00]--></g></svg>