<svg xmlns="http://www.w3.org/2000/svg" xmlns:xlink="http://www.w3.org/1999/xlink" contentStyleType="text/css" data-diagram-type="CLASS" height="903.125px" preserveAspectRatio="none" style="width:556px;height:903px;" version="1.1" viewBox="0 0 556 903" width="556.25px" zoomAndPan="magnify"><defs/><g><!--class ILoadBalancerPolicy--><g id="elem_ILoadBalancerPolicy"><rect codeLine="27" fill="transparent" height="101.3763" id="ILoadBalancerPolicy" rx="4.1667" ry="4.1667" style="stroke:#55B2DE;stroke-width:1.0417;" width="156.4346" x="143.9995" y="789.8646"/><rect fill="#227FAB" height="60.3673" rx="4.1667" ry="4.1667" style="stroke:#227FAB;stroke-width:1.0417;" width="156.4346" x="143.9995" y="789.8646"/><rect fill="#227FAB" height="4.1667" style="stroke:#227FAB;stroke-width:1.0417;" width="156.4346" x="143.9995" y="846.0652"/><rect codeLine="27" fill="transparent" height="101.3763" id="ILoadBalancerPolicy" rx="4.1667" ry="4.1667" style="stroke:#55B2DE;stroke-width:1.0417;" width="156.4346" x="143.9995" y="789.8646"/><ellipse cx="158.5828" cy="820.0482" fill="transparent" rx="10.4167" ry="10.4167" style="stroke:#55B2DE;stroke-width:1.0417;"/><path d="M155.9868,817.2101 L155.9868,815.6232 L161.4128,815.6232 L161.4128,817.2101 L159.6001,817.2101 L159.6001,823.1488 L161.4128,823.1488 L161.4128,824.7357 L155.9868,824.7357 L155.9868,823.1488 L157.7995,823.1488 L157.7995,817.2101 Z " fill="#2A9FD6"/><text fill="#ADAFAE" font-family="Verdana" font-size="12.5" font-style="italic" lengthAdjust="spacing" textLength="71.0205" x="199.2065" y="812.8484">&#171;interface&#187;</text><text fill="#ADAFAE" font-family="Verdana" font-size="11.4583" font-style="italic" lengthAdjust="spacing" textLength="114.768" x="177.3328" y="837.4094">ILoadBalancerPolicy</text><line style="stroke:#55B2DE;stroke-width:1.0417;" x1="145.0411" x2="299.3924" y1="850.2319" y2="850.2319"/><text fill="#ADAFAE" font-family="Verdana" font-size="11.4583" lengthAdjust="spacing" textLength="72.286" x="155.4578" y="871.1268">serverId: int</text><line style="stroke:#55B2DE;stroke-width:1.0417;" x1="145.0411" x2="299.3924" y1="882.9076" y2="882.9076"/></g><!--class LoadBalancerApplication--><g id="elem_LoadBalancerApplication"><rect codeLine="30" fill="transparent" height="75.768" id="LoadBalancerApplication" rx="4.1667" ry="4.1667" style="stroke:#55B2DE;stroke-width:1.0417;" width="192.2368" x="352.1453" y="42.0521"/><rect fill="#227FAB" height="34.759" rx="4.1667" ry="4.1667" style="stroke:#227FAB;stroke-width:1.0417;" width="192.2368" x="352.1453" y="42.0521"/><rect fill="#227FAB" height="4.1667" style="stroke:#227FAB;stroke-width:1.0417;" width="192.2368" x="352.1453" y="72.6444"/><rect codeLine="30" fill="transparent" height="75.768" id="LoadBalancerApplication" rx="4.1667" ry="4.1667" style="stroke:#55B2DE;stroke-width:1.0417;" width="192.2368" x="352.1453" y="42.0521"/><ellipse cx="371.4093" cy="59.4316" fill="transparent" rx="10.4167" ry="10.4167" style="stroke:#55B2DE;stroke-width:1.0417;"/><path d="M373.3197,63.8566 Q372.8924,64.0764 372.4225,64.1862 Q371.9525,64.2961 371.4337,64.2961 Q369.5904,64.2961 368.62,63.0815 Q367.6495,61.8669 367.6495,59.572 Q367.6495,57.2709 368.62,56.0563 Q369.5904,54.8417 371.4337,54.8417 Q371.9525,54.8417 372.4286,54.9516 Q372.9046,55.0615 373.3197,55.2812 L373.3197,57.2832 Q372.8558,56.8559 372.4194,56.6575 Q371.983,56.4592 371.5191,56.4592 Q370.5304,56.4592 370.0268,57.2435 Q369.5233,58.0278 369.5233,59.572 Q369.5233,61.1101 370.0268,61.8944 Q370.5304,62.6787 371.5191,62.6787 Q371.983,62.6787 372.4194,62.4803 Q372.8558,62.2819 373.3197,61.8547 Z " fill="#2A9FD6"/><text fill="#ADAFAE" font-family="Verdana" font-size="11.4583" lengthAdjust="spacing" textLength="140.1688" x="391.1994" y="63.9886">LoadBalancerApplication</text><line style="stroke:#55B2DE;stroke-width:1.0417;" x1="353.187" x2="543.3405" y1="76.8111" y2="76.8111"/><line style="stroke:#55B2DE;stroke-width:1.0417;" x1="353.187" x2="543.3405" y1="85.1444" y2="85.1444"/><ellipse cx="363.6036" cy="103.0448" fill="transparent" rx="3.125" ry="3.125" style="stroke:#55B2DE;stroke-width:1.0417;"/><text fill="#ADAFAE" font-family="Verdana" font-size="11.4583" lengthAdjust="spacing" textLength="155.7785" x="377.1453" y="106.0393">LoadBalancerApplication():</text></g><!--class LoadBalancerController--><g id="elem_LoadBalancerController"><rect codeLine="33" fill="transparent" height="124.4527" id="LoadBalancerController" rx="4.1667" ry="4.1667" style="stroke:#55B2DE;stroke-width:1.0417;" width="218.9692" x="97.1141" y="17.7083"/><rect fill="#227FAB" height="34.759" rx="4.1667" ry="4.1667" style="stroke:#227FAB;stroke-width:1.0417;" width="218.9692" x="97.1141" y="17.7083"/><rect fill="#227FAB" height="4.1667" style="stroke:#227FAB;stroke-width:1.0417;" width="218.9692" x="97.1141" y="48.3007"/><rect codeLine="33" fill="transparent" height="124.4527" id="LoadBalancerController" rx="4.1667" ry="4.1667" style="stroke:#55B2DE;stroke-width:1.0417;" width="218.9692" x="97.1141" y="17.7083"/><ellipse cx="131.3533" cy="35.0878" fill="transparent" rx="10.4167" ry="10.4167" style="stroke:#55B2DE;stroke-width:1.0417;"/><path d="M133.2637,39.5129 Q132.8365,39.7326 132.3665,39.8425 Q131.8965,39.9523 131.3777,39.9523 Q129.5345,39.9523 128.564,38.7377 Q127.5935,37.5231 127.5935,35.2282 Q127.5935,32.9272 128.564,31.7126 Q129.5345,30.498 131.3777,30.498 Q131.8965,30.498 132.3726,30.6079 Q132.8487,30.7177 133.2637,30.9374 L133.2637,32.9394 Q132.7998,32.5122 132.3634,32.3138 Q131.927,32.1154 131.4632,32.1154 Q130.4744,32.1154 129.9709,32.8997 Q129.4673,33.684 129.4673,35.2282 Q129.4673,36.7663 129.9709,37.5506 Q130.4744,38.3349 131.4632,38.3349 Q131.927,38.3349 132.3634,38.1365 Q132.7998,37.9382 133.2637,37.5109 Z " fill="#2A9FD6"/><text fill="#ADAFAE" font-family="Verdana" font-size="11.4583" lengthAdjust="spacing" textLength="133.6227" x="154.4713" y="39.6449">LoadBalancerController</text><line style="stroke:#55B2DE;stroke-width:1.0417;" x1="98.1557" x2="315.0416" y1="52.4673" y2="52.4673"/><rect fill="transparent" height="6.25" style="stroke:#55B2DE;stroke-width:1.0417;" width="6.25" x="105.4474" y="67.2427"/><text fill="#ADAFAE" font-family="Verdana" font-size="11.4583" lengthAdjust="spacing" textLength="182.5109" x="122.1141" y="73.3622">serverManager: ServerManager</text><text fill="#ADAFAE" font-family="Verdana" font-size="11.4583" lengthAdjust="spacing" textLength="182.5109" x="122.1141" y="97.7046">serverManager: ServerManager</text><line style="stroke:#55B2DE;stroke-width:1.0417;" x1="98.1557" x2="315.0416" y1="109.4854" y2="109.4854"/><ellipse cx="108.5724" cy="127.3857" fill="transparent" rx="3.125" ry="3.125" style="stroke:#55B2DE;stroke-width:1.0417;"/><text fill="#ADAFAE" font-family="Verdana" font-size="11.4583" lengthAdjust="spacing" textLength="149.2325" x="122.1141" y="130.3802">LoadBalancerController():</text></g><!--class LoadBalancerPolicyFactory--><g id="elem_LoadBalancerPolicyFactory"><rect codeLine="38" fill="transparent" height="173.1374" id="LoadBalancerPolicyFactory" rx="4.1667" ry="4.1667" style="stroke:#55B2DE;stroke-width:1.0417;" width="290.1138" x="161.5411" y="391.6146"/><rect fill="#227FAB" height="34.759" rx="4.1667" ry="4.1667" style="stroke:#227FAB;stroke-width:1.0417;" width="290.1138" x="161.5411" y="391.6146"/><rect fill="#227FAB" height="4.1667" style="stroke:#227FAB;stroke-width:1.0417;" width="290.1138" x="161.5411" y="422.2069"/><rect codeLine="38" fill="transparent" height="173.1374" id="LoadBalancerPolicyFactory" rx="4.1667" ry="4.1667" style="stroke:#55B2DE;stroke-width:1.0417;" width="290.1138" x="161.5411" y="391.6146"/><ellipse cx="220.9563" cy="408.9941" fill="transparent" rx="10.4167" ry="10.4167" style="stroke:#55B2DE;stroke-width:1.0417;"/><path d="M222.8667,413.4191 Q222.4395,413.6389 221.9695,413.7487 Q221.4995,413.8586 220.9807,413.8586 Q219.1375,413.8586 218.167,412.644 Q217.1966,411.4294 217.1966,409.1345 Q217.1966,406.8334 218.167,405.6188 Q219.1375,404.4042 220.9807,404.4042 Q221.4995,404.4042 221.9756,404.5141 Q222.4517,404.624 222.8667,404.8437 L222.8667,406.8457 Q222.4029,406.4184 221.9665,406.22 Q221.5301,406.0217 221.0662,406.0217 Q220.0774,406.0217 219.5739,406.806 Q219.0703,407.5903 219.0703,409.1345 Q219.0703,410.6726 219.5739,411.4569 Q220.0774,412.2412 221.0662,412.2412 Q221.5301,412.2412 221.9665,412.0428 Q222.4029,411.8444 222.8667,411.4172 Z " fill="#2A9FD6"/><text fill="#ADAFAE" font-family="Verdana" font-size="11.4583" lengthAdjust="spacing" textLength="152.5335" x="245.9563" y="413.5511">LoadBalancerPolicyFactory</text><line style="stroke:#55B2DE;stroke-width:1.0417;" x1="162.5828" x2="450.6133" y1="426.3736" y2="426.3736"/><rect fill="transparent" height="6.25" style="stroke:#55B2DE;stroke-width:1.0417;" width="6.25" x="169.8745" y="441.1489"/><text fill="#ADAFAE" font-family="Verdana" font-size="11.4583" lengthAdjust="spacing" textLength="144.1915" x="186.5411" y="447.2685">roundRobin: RoundRobin</text><rect fill="transparent" height="6.25" style="stroke:#55B2DE;stroke-width:1.0417;" width="6.25" x="169.8745" y="465.4913"/><text fill="#ADAFAE" font-family="Verdana" font-size="11.4583" lengthAdjust="spacing" textLength="253.6555" x="186.5411" y="471.6108">weightedRoundRobin: WeightedRoundRobin</text><text fill="#ADAFAE" font-family="Verdana" font-size="11.4583" lengthAdjust="spacing" textLength="253.6555" x="186.5411" y="495.9532">weightedRoundRobin: WeightedRoundRobin</text><text fill="#ADAFAE" font-family="Verdana" font-size="11.4583" lengthAdjust="spacing" textLength="144.1915" x="186.5411" y="520.2955">roundRobin: RoundRobin</text><line style="stroke:#55B2DE;stroke-width:1.0417;" x1="162.5828" x2="450.6133" y1="532.0763" y2="532.0763"/><ellipse cx="172.9995" cy="549.9767" fill="transparent" rx="3.125" ry="3.125" style="stroke:#55B2DE;stroke-width:1.0417;"/><text fill="#ADAFAE" font-family="Verdana" font-size="11.4583" lengthAdjust="spacing" textLength="168.1432" x="186.5411" y="552.9712">LoadBalancerPolicyFactory():</text></g><!--class RoundRobin--><g id="elem_RoundRobin"><rect codeLine="45" fill="transparent" height="100.1104" id="RoundRobin" rx="4.1667" ry="4.1667" style="stroke:#55B2DE;stroke-width:1.0417;" width="121.0866" x="161.6766" y="627.25"/><rect fill="#227FAB" height="34.759" rx="4.1667" ry="4.1667" style="stroke:#227FAB;stroke-width:1.0417;" width="121.0866" x="161.6766" y="627.25"/><rect fill="#227FAB" height="4.1667" style="stroke:#227FAB;stroke-width:1.0417;" width="121.0866" x="161.6766" y="657.8423"/><rect codeLine="45" fill="transparent" height="100.1104" id="RoundRobin" rx="4.1667" ry="4.1667" style="stroke:#55B2DE;stroke-width:1.0417;" width="121.0866" x="161.6766" y="627.25"/><ellipse cx="180.9405" cy="644.6295" fill="transparent" rx="10.4167" ry="10.4167" style="stroke:#55B2DE;stroke-width:1.0417;"/><path d="M182.8509,649.0546 Q182.4237,649.2743 181.9537,649.3841 Q181.4837,649.494 180.9649,649.494 Q179.1217,649.494 178.1512,648.2794 Q177.1808,647.0648 177.1808,644.7699 Q177.1808,642.4689 178.1512,641.2543 Q179.1217,640.0397 180.9649,640.0397 Q181.4837,640.0397 181.9598,640.1495 Q182.4359,640.2594 182.8509,640.4791 L182.8509,642.4811 Q182.3871,642.0538 181.9507,641.8555 Q181.5143,641.6571 181.0504,641.6571 Q180.0616,641.6571 179.5581,642.4414 Q179.0545,643.2257 179.0545,644.7699 Q179.0545,646.308 179.5581,647.0923 Q180.0616,647.8766 181.0504,647.8766 Q181.5143,647.8766 181.9507,647.6782 Q182.3871,647.4798 182.8509,647.0526 Z " fill="#2A9FD6"/><text fill="#ADAFAE" font-family="Verdana" font-size="11.4583" lengthAdjust="spacing" textLength="69.0186" x="200.7307" y="649.1865">RoundRobin</text><line style="stroke:#55B2DE;stroke-width:1.0417;" x1="162.7182" x2="281.7215" y1="662.009" y2="662.009"/><text fill="#ADAFAE" font-family="Verdana" font-size="11.4583" lengthAdjust="spacing" textLength="72.286" x="173.1349" y="682.9039">serverId: int</text><line style="stroke:#55B2DE;stroke-width:1.0417;" x1="162.7182" x2="281.7215" y1="694.6847" y2="694.6847"/><ellipse cx="173.1349" cy="712.585" fill="transparent" rx="3.125" ry="3.125" style="stroke:#55B2DE;stroke-width:1.0417;"/><text fill="#ADAFAE" font-family="Verdana" font-size="11.4583" lengthAdjust="spacing" textLength="84.6283" x="186.6766" y="715.5796">RoundRobin():</text></g><!--class ServerManager--><g id="elem_ServerManager"><rect codeLine="49" fill="transparent" height="124.4527" id="ServerManager" rx="4.1667" ry="4.1667" style="stroke:#55B2DE;stroke-width:1.0417;" width="333.9813" x="39.6036" y="204.6667"/><rect fill="#227FAB" height="34.759" rx="4.1667" ry="4.1667" style="stroke:#227FAB;stroke-width:1.0417;" width="333.9813" x="39.6036" y="204.6667"/><rect fill="#227FAB" height="4.1667" style="stroke:#227FAB;stroke-width:1.0417;" width="333.9813" x="39.6036" y="235.259"/><rect codeLine="49" fill="transparent" height="124.4527" id="ServerManager" rx="4.1667" ry="4.1667" style="stroke:#55B2DE;stroke-width:1.0417;" width="333.9813" x="39.6036" y="204.6667"/><ellipse cx="153.4337" cy="222.0462" fill="transparent" rx="10.4167" ry="10.4167" style="stroke:#55B2DE;stroke-width:1.0417;"/><path d="M155.3441,226.4712 Q154.9169,226.6909 154.4469,226.8008 Q153.9769,226.9107 153.4581,226.9107 Q151.6149,226.9107 150.6444,225.6961 Q149.6739,224.4815 149.6739,222.1866 Q149.6739,219.8855 150.6444,218.6709 Q151.6149,217.4563 153.4581,217.4563 Q153.9769,217.4563 154.453,217.5662 Q154.9291,217.6761 155.3441,217.8958 L155.3441,219.8977 Q154.8802,219.4705 154.4438,219.2721 Q154.0074,219.0738 153.5436,219.0738 Q152.5548,219.0738 152.0513,219.8581 Q151.5477,220.6424 151.5477,222.1866 Q151.5477,223.7246 152.0513,224.5089 Q152.5548,225.2932 153.5436,225.2932 Q154.0074,225.2932 154.4438,225.0949 Q154.8802,224.8965 155.3441,224.4693 Z " fill="#2A9FD6"/><text fill="#ADAFAE" font-family="Verdana" font-size="11.4583" lengthAdjust="spacing" textLength="87.5712" x="178.4337" y="226.6032">ServerManager</text><line style="stroke:#55B2DE;stroke-width:1.0417;" x1="40.6453" x2="372.5433" y1="239.4257" y2="239.4257"/><text fill="#ADAFAE" font-family="Verdana" font-size="11.4583" lengthAdjust="spacing" textLength="311.0647" x="51.062" y="260.3206">loadBalancerPolicyFactory: LoadBalancerPolicyFactory</text><text fill="#ADAFAE" font-family="Verdana" font-size="11.4583" lengthAdjust="spacing" textLength="124.6989" x="51.062" y="284.6629">healthyServer: String</text><line style="stroke:#55B2DE;stroke-width:1.0417;" x1="40.6453" x2="372.5433" y1="296.4437" y2="296.4437"/><ellipse cx="51.062" cy="314.344" fill="transparent" rx="3.125" ry="3.125" style="stroke:#55B2DE;stroke-width:1.0417;"/><text fill="#ADAFAE" font-family="Verdana" font-size="11.4583" lengthAdjust="spacing" textLength="103.1809" x="64.6036" y="317.3386">ServerManager():</text></g><!--class WeightedRoundRobin--><g id="elem_WeightedRoundRobin"><rect codeLine="54" fill="transparent" height="100.1104" id="WeightedRoundRobin" rx="4.1667" ry="4.1667" style="stroke:#55B2DE;stroke-width:1.0417;" width="175.2563" x="318.9682" y="627.25"/><rect fill="#227FAB" height="34.759" rx="4.1667" ry="4.1667" style="stroke:#227FAB;stroke-width:1.0417;" width="175.2563" x="318.9682" y="627.25"/><rect fill="#227FAB" height="4.1667" style="stroke:#227FAB;stroke-width:1.0417;" width="175.2563" x="318.9682" y="657.8423"/><rect codeLine="54" fill="transparent" height="100.1104" id="WeightedRoundRobin" rx="4.1667" ry="4.1667" style="stroke:#55B2DE;stroke-width:1.0417;" width="175.2563" x="318.9682" y="627.25"/><ellipse cx="338.2322" cy="644.6295" fill="transparent" rx="10.4167" ry="10.4167" style="stroke:#55B2DE;stroke-width:1.0417;"/><path d="M340.1426,649.0546 Q339.7153,649.2743 339.2454,649.3841 Q338.7754,649.494 338.2566,649.494 Q336.4133,649.494 335.4429,648.2794 Q334.4724,647.0648 334.4724,644.7699 Q334.4724,642.4689 335.4429,641.2543 Q336.4133,640.0397 338.2566,640.0397 Q338.7754,640.0397 339.2515,640.1495 Q339.7276,640.2594 340.1426,640.4791 L340.1426,642.4811 Q339.6787,642.0538 339.2423,641.8555 Q338.8059,641.6571 338.3421,641.6571 Q337.3533,641.6571 336.8497,642.4414 Q336.3462,643.2257 336.3462,644.7699 Q336.3462,646.308 336.8497,647.0923 Q337.3533,647.8766 338.3421,647.8766 Q338.8059,647.8766 339.2423,647.6782 Q339.6787,647.4798 340.1426,647.0526 Z " fill="#2A9FD6"/><text fill="#ADAFAE" font-family="Verdana" font-size="11.4583" lengthAdjust="spacing" textLength="123.1883" x="358.0223" y="649.1865">WeightedRoundRobin</text><line style="stroke:#55B2DE;stroke-width:1.0417;" x1="320.0099" x2="493.1829" y1="662.009" y2="662.009"/><text fill="#ADAFAE" font-family="Verdana" font-size="11.4583" lengthAdjust="spacing" textLength="72.286" x="330.4266" y="682.9039">serverId: int</text><line style="stroke:#55B2DE;stroke-width:1.0417;" x1="320.0099" x2="493.1829" y1="694.6847" y2="694.6847"/><ellipse cx="330.4266" cy="712.585" fill="transparent" rx="3.125" ry="3.125" style="stroke:#55B2DE;stroke-width:1.0417;"/><text fill="#ADAFAE" font-family="Verdana" font-size="11.4583" lengthAdjust="spacing" textLength="138.798" x="343.9682" y="715.5796">WeightedRoundRobin():</text></g><!--link LoadBalancerController to ServerManager--><g id="link_LoadBalancerController_ServerManager"><path codeLine="59" d="M206.5932,154.6875 C206.5932,174.6563 206.5932,178.0208 206.5932,198.0208 " fill="transparent" id="LoadBalancerController-ServerManager" style="stroke:#595959;stroke-width:3.125;"/><polygon fill="#595959" points="206.5932,142.1875,202.4266,148.4375,206.5932,154.6875,210.7599,148.4375,206.5932,142.1875" style="stroke:#595959;stroke-width:3.125;"/><polygon fill="#595959" points="206.5932,204.2708,210.7599,194.8958,206.5932,199.0625,202.4266,194.8958,206.5932,204.2708" style="stroke:#595959;stroke-width:3.125;"/><text fill="#FFFFFF" font-family="Verdana" font-size="12.5" lengthAdjust="spacing" textLength="7.9468" x="193.16" y="168.1723">1</text><text fill="#FFFFFF" font-family="Verdana" font-size="12.5" lengthAdjust="spacing" textLength="93.4998" x="216.9161" y="173.266">serverManager</text><text fill="#FFFFFF" font-family="Verdana" font-size="12.5" lengthAdjust="spacing" textLength="7.9468" x="259.6926" y="188.4577">1</text></g><!--link LoadBalancerPolicyFactory to RoundRobin--><g id="link_LoadBalancerPolicyFactory_RoundRobin"><path codeLine="60" d="M222.2182,577.7292 C222.2182,598.7708 222.2182,601.8125 222.2182,620.5208 " fill="transparent" id="LoadBalancerPolicyFactory-RoundRobin" style="stroke:#595959;stroke-width:3.125;"/><polygon fill="#595959" points="222.2182,565.2292,218.0516,571.4792,222.2182,577.7292,226.3849,571.4792,222.2182,565.2292" style="stroke:#595959;stroke-width:3.125;"/><polygon fill="#595959" points="222.2182,626.7708,226.3849,617.3958,222.2182,621.5625,218.0516,617.3958,222.2182,626.7708" style="stroke:#595959;stroke-width:3.125;"/><text fill="#FFFFFF" font-family="Verdana" font-size="12.5" lengthAdjust="spacing" textLength="7.9468" x="202.3147" y="590.9614">1</text><text fill="#FFFFFF" font-family="Verdana" font-size="12.5" lengthAdjust="spacing" textLength="71.936" x="232.1874" y="595.7398">roundRobin</text><text fill="#FFFFFF" font-family="Verdana" font-size="12.5" lengthAdjust="spacing" textLength="7.9468" x="264.182" y="610.9314">1</text></g><!--link LoadBalancerPolicyFactory to WeightedRoundRobin--><g id="link_LoadBalancerPolicyFactory_WeightedRoundRobin"><path codeLine="61" d="M385.312,577.7292 C385.312,598.7708 385.312,601.8125 385.312,620.5208 " fill="transparent" id="LoadBalancerPolicyFactory-WeightedRoundRobin" style="stroke:#595959;stroke-width:3.125;"/><polygon fill="#595959" points="385.312,565.2292,381.1453,571.4792,385.312,577.7292,389.4786,571.4792,385.312,565.2292" style="stroke:#595959;stroke-width:3.125;"/><polygon fill="#595959" points="385.312,626.7708,389.4786,617.3958,385.312,621.5625,381.1453,617.3958,385.312,626.7708" style="stroke:#595959;stroke-width:3.125;"/><text fill="#FFFFFF" font-family="Verdana" font-size="12.5" lengthAdjust="spacing" textLength="7.9468" x="378.405" y="590.9614">1</text><text fill="#FFFFFF" font-family="Verdana" font-size="12.5" lengthAdjust="spacing" textLength="132.2571" x="396.3076" y="595.7398">weightedRoundRobin</text><text fill="#FFFFFF" font-family="Verdana" font-size="12.5" lengthAdjust="spacing" textLength="7.9468" x="458.4628" y="610.9314">1</text></g><!--link RoundRobin to ILoadBalancerPolicy--><g id="link_RoundRobin_ILoadBalancerPolicy"><path codeLine="62" d="M222.2182,727.6146 C222.2182,747.2917 222.2182,751.0729 222.2182,770.8125 " fill="transparent" id="RoundRobin-to-ILoadBalancerPolicy" style="stroke:#008200;stroke-width:3.125;stroke-dasharray:7.0,7.0;"/><polygon fill="transparent" points="222.2182,789.5625,228.4682,770.8125,215.9682,770.8125,222.2182,789.5625" style="stroke:#008200;stroke-width:3.125;"/></g><!--link ServerManager to ILoadBalancerPolicy--><g id="link_ServerManager_ILoadBalancerPolicy"><path codeLine="63" d="M152.7703,341.875 C152.7703,456.1458 152.7703,677.9583 152.7703,783.1979 " fill="transparent" id="ServerManager-ILoadBalancerPolicy" style="stroke:#595959;stroke-width:3.125;"/><polygon fill="#595959" points="152.7703,329.375,148.6036,335.625,152.7703,341.875,156.937,335.625,152.7703,329.375" style="stroke:#595959;stroke-width:3.125;"/><polygon fill="#595959" points="152.7703,789.4479,156.937,780.0729,152.7703,784.2396,148.6036,780.0729,152.7703,789.4479" style="stroke:#595959;stroke-width:3.125;"/><text fill="#FFFFFF" font-family="Verdana" font-size="12.5" lengthAdjust="spacing" textLength="7.9468" x="133.4507" y="355.3849">1</text><text fill="#FFFFFF" font-family="Verdana" font-size="12.5" lengthAdjust="spacing" textLength="116.4246" x="16.6667" y="758.3509">loadBalancerPolicy</text><text fill="#FFFFFF" font-family="Verdana" font-size="12.5" lengthAdjust="spacing" textLength="7.9468" x="70.9056" y="773.5425">1</text></g><!--link ServerManager to LoadBalancerPolicyFactory--><g id="link_ServerManager_LoadBalancerPolicyFactory"><path codeLine="64" d="M267.562,341.9271 C267.562,361.2708 267.562,364.2083 267.562,384.8958 " fill="transparent" id="ServerManager-LoadBalancerPolicyFactory" style="stroke:#595959;stroke-width:3.125;"/><polygon fill="#595959" points="267.562,329.4271,263.3953,335.6771,267.562,341.9271,271.7286,335.6771,267.562,329.4271" style="stroke:#595959;stroke-width:3.125;"/><polygon fill="#595959" points="267.562,391.1458,271.7286,381.7708,267.562,385.9375,263.3953,381.7708,267.562,391.1458" style="stroke:#595959;stroke-width:3.125;"/><text fill="#FFFFFF" font-family="Verdana" font-size="12.5" lengthAdjust="spacing" textLength="7.9468" x="260.7977" y="355.4427">1</text><text fill="#FFFFFF" font-family="Verdana" font-size="12.5" lengthAdjust="spacing" textLength="43.6584" x="271.8892" y="360.4192">factory</text><text fill="#FFFFFF" font-family="Verdana" font-size="12.5" lengthAdjust="spacing" textLength="7.9468" x="289.745" y="375.6109">1</text></g><!--link WeightedRoundRobin to ILoadBalancerPolicy--><g id="link_WeightedRoundRobin_ILoadBalancerPolicy"><path codeLine="65" d="M318.562,677.6979 C302.9682,677.6979 291.6036,677.6979 291.6036,677.6979 C291.6036,677.6979 291.6036,722.9583 291.6036,770.7188 " fill="transparent" id="WeightedRoundRobin-to-ILoadBalancerPolicy" style="stroke:#008200;stroke-width:3.125;stroke-dasharray:7.0,7.0;"/><polygon fill="transparent" points="291.6036,789.4688,297.8536,770.7188,285.3536,770.7188,291.6036,789.4688" style="stroke:#008200;stroke-width:3.125;"/></g><!--SRC=[hLHDIyD04BtlhnZhnOy6gY1eA0KLX8A2r8C7hR1DfidYTYTijaeG_xj9cZQ9oO2Acqio7- -zUJjapyMuGWYo1Td8exNJog1mb80ZM91pj89GMGoS8YFILsKIQUKAYZAN9GXaNKn2AEFGBcM0CBqb6Lv9BKs0zfwq2Z8OZw4kc4pWGm10YlODxJJqYvpu586MQGhDxiiaoTjbGLss77FPWqCVUX6koJXBMgFj0QYJPJ-0LscwaqP6Q7ruQ7xMcfbydu2D0JSoS6Ip7Wsj_4w6fRK9PxHGneVPxhrClQEAOeVXh57os8aLMdzUoT1jvwb3rG1re5BCt6NBdggt5TksQyuHdpUhw8jHQXTd6ypyEfnL9jhHTuUjD7GJt1o2MQRy34u6SEGzxPzT5CymqLAPkJU1GMj7darUrlQXUGI_Aon-VLibU6EwR-SluDsbAKbwhDoIyFoG4un6vwUZqJ2KQOpXt7k1tlz31SNxnEhjRawfztz9bXlNIcJUKy6Rz5idlW00]--></g></svg>